<svg class="animated error" id="freepik_stories-401-error-unauthorized" xmlns="http://www.w3.org/2000/svg" viewBox="0 0 500 500" version="1.1" xmlns:xlink="http://www.w3.org/1999/xlink" xmlns:svgjs="http://svgjs.com/svgjs">
  <style>svg#freepik_stories-401-error-unauthorized:not(.animated) .animable {opacity: 0;}svg#freepik_stories-401-error-unauthorized.animated #freepik--error-401--inject-5 {animation: 1.5s Infinite  linear shake;animation-delay: 0s;}svg#freepik_stories-401-error-unauthorized.animated #freepik--Character--inject-5 {animation: 1s 1 forwards cubic-bezier(.36,-0.01,.5,1.38) zoomOut;animation-delay: 0s;}            @keyframes shake {                10%, 90% {                    transform: translate3d(-1px, 0, 0);                  }                  20%, 80% {                    transform: translate3d(2px, 0, 0);                  }                  30%, 50%, 70% {                    transform: translate3d(-4px, 0, 0);                  }                  40%, 60% {                    transform: translate3d(4px, 0, 0);                  }            }                    @keyframes zoomOut {                0% {                    opacity: 0;                    transform: scale(1.5);                }                100% {                    opacity: 1;                    transform: scale(1);                }            }        </style><g id="freepik--background-simple--inject-5" class="animable" style="transform-origin: 249.495px 215.837px;"><path d="M312.63,195.48c-16.42-28.3-22.45-56.7-48.46-80.94-20.39-19-44.8-36.36-80.73-36.05-34.24.3-66.69,11.37-81.9,37.85-15,26.17-12.38,61.45,1.46,84.65,7.37,12.36,20.1,21.2,30.93,31.54,11.94,11.39,17.78,24.45,21.42,39.25,6.4,26,9.83,51.91,38,68.23,27.57,16,63.86,13.73,99,11.88,32.1-1.68,78.09,3.51,101.17-22.13,21.83-24.25,16.35-63.72-3.39-83.32C368.11,224.61,328.38,222.61,312.63,195.48Z" style="fill: rgb(39, 174, 96); transform-origin: 249.495px 215.837px;" id="ellvg0eu80m" class="animable"></path><g id="eldrtm1b0u2v4"><path d="M312.63,195.48c-16.42-28.3-22.45-56.7-48.46-80.94-20.39-19-44.8-36.36-80.73-36.05-34.24.3-66.69,11.37-81.9,37.85-15,26.17-12.38,61.45,1.46,84.65,7.37,12.36,20.1,21.2,30.93,31.54,11.94,11.39,17.78,24.45,21.42,39.25,6.4,26,9.83,51.91,38,68.23,27.57,16,63.86,13.73,99,11.88,32.1-1.68,78.09,3.51,101.17-22.13,21.83-24.25,16.35-63.72-3.39-83.32C368.11,224.61,328.38,222.61,312.63,195.48Z" style="fill: rgb(255, 255, 255); opacity: 0.9; transform-origin: 249.495px 215.837px;" class="animable"></path></g></g><g id="freepik--Shadow--inject-5" class="animable" style="transform-origin: 250px 416.24px;"><ellipse id="freepik--path--inject-5" cx="250" cy="416.24" rx="193.89" ry="11.32" style="fill: rgb(245, 245, 245); transform-origin: 250px 416.24px;" class="animable"></ellipse></g><g id="freepik--error-401--inject-5" class="animable animator-active" style="transform-origin: 221.725px 97.05px;"><path d="M128.74,128.92H78.54V106.26l50.2-59.67h24v61h12.45v21.38H152.76v18.54h-24Zm0-21.38V76.33l-26.52,31.21Z" style="fill: rgb(38, 50, 56); transform-origin: 121.865px 97.05px;" id="el3giwss2gbo2" class="animable"></path><path d="M364.91,46.59V147.46H337V81.36A84.88,84.88,0,0,1,324,89.68a102.47,102.47,0,0,1-15.87,6.09V73.18q14.07-4.55,21.85-10.9a44.41,44.41,0,0,0,12.18-15.69Z" style="fill: rgb(38, 50, 56); transform-origin: 336.52px 97.025px;" id="el187v4h3qfb1" class="animable"></path></g><g id="freepik--Character--inject-5" class="animable" style="transform-origin: 276.771px 226.668px;"><path d="M311.82,173.19c-.44.79-.78,1.36-1.17,2s-.78,1.24-1.17,1.86c-.79,1.22-1.63,2.4-2.48,3.58a82.43,82.43,0,0,1-5.51,6.81,65.42,65.42,0,0,1-6.41,6.25,45.82,45.82,0,0,1-7.67,5.38,18.47,18.47,0,0,1-2.69,1.29,17.11,17.11,0,0,1-3,.84,22.33,22.33,0,0,1-5.53.26,34.2,34.2,0,0,1-9.33-2.16,56,56,0,0,1-8-3.8,57.91,57.91,0,0,1-7.2-4.86,3.5,3.5,0,0,1,3.42-6l.18.07a88.7,88.7,0,0,0,14.53,4.41,27.19,27.19,0,0,0,6.65.55,9.43,9.43,0,0,0,2.56-.47,5,5,0,0,0,.89-.39c.28-.16.33-.21.9-.6A53.25,53.25,0,0,0,291,178.36c1.57-1.92,3.1-3.91,4.55-6,.74-1,1.44-2.07,2.15-3.11l1-1.56.94-1.47.16-.25a7,7,0,0,1,12,7.19Z" style="fill: rgb(255, 139, 123); transform-origin: 281.512px 182.164px;" id="elkaqiu7dcidf" class="animable"></path><path d="M256.74,185.46l-7.67-5.08-3.25,10.2a9.67,9.67,0,0,0,9.86-.5Z" style="fill: rgb(255, 139, 123); transform-origin: 251.28px 186.038px;" id="ell7195siikxl" class="animable"></path><path d="M242,181.91l-.6,3.25a3.1,3.1,0,0,0,1.22,3.08l3.17,2.34,3.25-10.2-3.08-.9A3.13,3.13,0,0,0,242,181.91Z" style="fill: rgb(255, 139, 123); transform-origin: 245.193px 184.966px;" id="el45p9ufdlr82" class="animable"></path><path d="M312.06,156.94c-7.81,1.23-15.71,10.4-20.46,18.95a30.35,30.35,0,0,0,13.53,12.42s9.26-8.76,13-15.24S319.41,155.77,312.06,156.94Z" style="fill: rgb(39, 174, 96); transform-origin: 305.73px 172.581px;" id="elasdt2f32t17" class="animable"></path><g id="el7rckm1pti6"><path d="M312.06,156.94c-7.81,1.23-15.71,10.4-20.46,18.95a30.35,30.35,0,0,0,13.53,12.42s9.26-8.76,13-15.24S319.41,155.77,312.06,156.94Z" style="opacity: 0.2; transform-origin: 305.73px 172.581px;" class="animable"></path></g><path d="M291.9,173.93a8.89,8.89,0,0,0-1.67,2.79c1.95,3,6.58,11,15.22,12.7a4,4,0,0,0,1.81-2.13S297.32,182.39,291.9,173.93Z" style="fill: rgb(38, 50, 56); transform-origin: 298.745px 181.675px;" id="el73nvrmredpi" class="animable"></path><path d="M343.53,156.67a104.52,104.52,0,0,0-28.57-.82c-7.1.91-12.4,7.44-12.35,14.59a131.71,131.71,0,0,0,2,22.25c-2.61,13.75-3.55,32.44-.8,36.56l49.19.69c2.11-5.88-.54-31.33,2.27-57.9A14.06,14.06,0,0,0,343.53,156.67Z" style="fill: rgb(39, 174, 96); transform-origin: 328.749px 192.588px;" id="els7et7s0tht" class="animable"></path><g id="eli7za5svk4ag"><path d="M325,229.31c-2.81-22.13,0-59.14,0-59.52l1,.08c0,.37-2.79,37.28,0,59.31Z" style="opacity: 0.2; transform-origin: 324.876px 199.55px;" class="animable"></path></g><path d="M319.65,156.54c1.69-.63,1.06-1.57,1.06-1.57s-7.68,0-13,1.43c-.81.86.06,2,.06,2S314.62,158.42,319.65,156.54Z" style="fill: rgb(38, 50, 56); transform-origin: 314.095px 156.685px;" id="elemhzfp5smbb" class="animable"></path><g id="eljjyt3dmszm8"><path d="M322.79,155s-3.17,5.86,1.07,11.19c-3.36,0-5.53,5.73-5.53,5.73s-6.56-9.12,1.83-16.41C320.63,154.78,322.79,155,322.79,155Z" style="opacity: 0.2; transform-origin: 319.875px 163.444px;" class="animable"></path></g><path d="M319.4,157.84c-.82,3.58,6.39,10.33,6.39,10.33s12.75-6.16,13.56-9.69Z" style="fill: rgb(255, 255, 255); transform-origin: 329.342px 163.005px;" id="elawprrpyc3rg" class="animable"></path><g id="elgknz3qbe9e8"><path d="M348.18,178.79c-1.36,2.62.45,14,5.7,18.81.06-4.7.2-9.69.5-14.82Z" style="opacity: 0.2; transform-origin: 351.063px 188.195px;" class="animable"></path></g><path d="M336.69,137.25l-13.16,8.64c1.56,3.82,2.29,7.8-2.21,9.64a3.12,3.12,0,0,0,0,5.79,15,15,0,0,0,4.12.87,24.68,24.68,0,0,0,12.38-2,3.15,3.15,0,0,0,1.14-4.67C335.51,150.64,335.93,142.16,336.69,137.25Z" style="fill: rgb(255, 139, 123); transform-origin: 329.463px 149.778px;" id="elpu0p5c55nnc" class="animable"></path><g id="el7tunzdrmz5e"><path d="M331.33,140.77l-7.79,5.11a17.47,17.47,0,0,1,1,3.24c3.11-.18,7.17-2.64,7.25-5.21A7.35,7.35,0,0,0,331.33,140.77Z" style="opacity: 0.2; transform-origin: 327.675px 144.945px;" class="animable"></path></g><path d="M322.08,120.77c3.35-.07,4.26,4.74,3,6.37,2.54.55,3.77,3.52,3,5s-3.71,3.15-6.33,2.49c-4.49-1.12-5.26-4.85-4-6.55C315.35,126.1,316.57,120,322.08,120.77Z" style="fill: rgb(38, 50, 56); transform-origin: 322.444px 127.741px;" id="elxp0766l6fz" class="animable"></path><g id="elv0bhyjgs4gm"><path d="M322.08,120.77c3.35-.07,4.26,4.74,3,6.37,2.54.55,3.77,3.52,3,5s-3.71,3.15-6.33,2.49c-4.49-1.12-5.26-4.85-4-6.55C315.35,126.1,316.57,120,322.08,120.77Z" style="fill: rgb(255, 255, 255); opacity: 0.2; transform-origin: 322.444px 127.741px;" class="animable"></path></g><path d="M341,128.7c-1,7.89-1.19,12.56-5.46,16.34-6.43,5.67-16,1.31-17.36-6.75-1.24-7.25.61-18.94,8.58-21.52A11,11,0,0,1,341,128.7Z" style="fill: rgb(255, 139, 123); transform-origin: 329.462px 131.931px;" id="elh7g24ag1ixw" class="animable"></path><path d="M340.05,134.73c-3.35,0-4.09-4.88-2.81-6.46-2.52-.65-3.64-3.66-2.86-5.14s3.81-3,6.41-2.27c4.45,1.28,5.1,5,3.81,6.69C347,129.65,345.53,135.67,340.05,134.73Z" style="fill: rgb(38, 50, 56); transform-origin: 339.924px 127.75px;" id="el8zghizij3ml" class="animable"></path><g id="elgnf8muh3sbr"><path d="M340.05,134.73c-3.35,0-4.09-4.88-2.81-6.46-2.52-.65-3.64-3.66-2.86-5.14s3.81-3,6.41-2.27c4.45,1.28,5.1,5,3.81,6.69C347,129.65,345.53,135.67,340.05,134.73Z" style="fill: rgb(255, 255, 255); opacity: 0.2; transform-origin: 339.924px 127.75px;" class="animable"></path></g><g id="el2zloyhv70mo"><path d="M332,130a3.17,3.17,0,0,1,2.41.31A6.38,6.38,0,0,1,332,130Z" style="opacity: 0.2; transform-origin: 333.205px 130.106px;" class="animable"></path></g><g id="el3ojffjbr5d3"><path d="M332,130.54a2.61,2.61,0,0,1,2.05.82A5.3,5.3,0,0,1,332,130.54Z" style="opacity: 0.2; transform-origin: 333.025px 130.948px;" class="animable"></path></g><g id="elx8hox89juym"><path d="M319.47,129.39a.79.79,0,0,0-1.1.31A1.5,1.5,0,0,0,319.47,129.39Z" style="opacity: 0.2; transform-origin: 318.92px 129.495px;" class="animable"></path></g><g id="eld400vcax1ri"><path d="M319.48,130s-.61-.09-.93.82A2.19,2.19,0,0,0,319.48,130Z" style="opacity: 0.2; transform-origin: 319.015px 130.409px;" class="animable"></path></g><path d="M343.38,136.74a7.49,7.49,0,0,1-4.22,3.48c-2.28.66-3.19-1.62-2.37-4,.75-2.13,2.82-5.05,5-4.66S344.58,134.63,343.38,136.74Z" style="fill: rgb(255, 139, 123); transform-origin: 340.24px 135.93px;" id="elvyjrgcpg1rm" class="animable"></path><path d="M330.4,130c0,.64-.41,1.14-.84,1.11s-.73-.58-.68-1.23.41-1.14.84-1.11S330.45,129.37,330.4,130Z" style="fill: rgb(38, 50, 56); transform-origin: 329.64px 129.94px;" id="elhvnf6yp5dlc" class="animable"></path><path d="M327.2,141.75c-.82.16-1.57-.16-1.67-.7s.5-1.1,1.32-1.26,1.57.16,1.67.7S328,141.6,327.2,141.75Z" style="fill: rgb(38, 50, 56); transform-origin: 327.025px 140.77px;" id="el8p099a246xc" class="animable"></path><path d="M321.65,129.31c0,.64-.42,1.14-.84,1.11s-.74-.58-.69-1.23.42-1.14.84-1.11S321.69,128.66,321.65,129.31Z" style="fill: rgb(38, 50, 56); transform-origin: 320.884px 129.25px;" id="el0rmqg1k6jwbp" class="animable"></path><path d="M323.64,135.75c-4.68.32-5.58,2.6-4.76,3.6s2.82,0,2.82,0,3.79.81,4.9-.4c1.79.76,4.52-.66,3.75-1.74S327.65,135.47,323.64,135.75Z" style="fill: rgb(38, 50, 56); transform-origin: 324.547px 137.74px;" id="elpf2wwqokuet" class="animable"></path><g id="elctbw4fb67ve"><path d="M323.64,135.75c-4.68.32-5.58,2.6-4.76,3.6s2.82,0,2.82,0,3.79.81,4.9-.4c1.79.76,4.52-.66,3.75-1.74S327.65,135.47,323.64,135.75Z" style="fill: rgb(255, 255, 255); opacity: 0.2; transform-origin: 324.547px 137.74px;" class="animable"></path></g><path d="M323.78,130a22.82,22.82,0,0,1-3.45,5.29,3.77,3.77,0,0,0,3.05.81Z" style="fill: rgb(255, 86, 82); transform-origin: 322.055px 133.078px;" id="el28c0efwhc6gh" class="animable"></path><path d="M331.81,126.64a.48.48,0,0,0,.18-.06.38.38,0,0,0,.11-.53,3.78,3.78,0,0,0-3-1.79.38.38,0,0,0,0,.76h0a3,3,0,0,1,2.35,1.44A.38.38,0,0,0,331.81,126.64Z" style="fill: rgb(38, 50, 56); transform-origin: 330.442px 125.451px;" id="elnttaadt8o5n" class="animable"></path><path d="M318.78,125.89a.4.4,0,0,0,.32-.17,3,3,0,0,1,2.36-1.38.38.38,0,0,0,0-.76,3.74,3.74,0,0,0-3,1.72.37.37,0,0,0,.11.52A.33.33,0,0,0,318.78,125.89Z" style="fill: rgb(38, 50, 56); transform-origin: 320.118px 124.735px;" id="eld6kkagb7tls" class="animable"></path><path d="M331.69,310.8c2.24-36.08,1.74-73.1-2.15-81.16l-25.75-.39S307,289.57,308,313.6c1.05,25,3.29,90,3.29,90l14.9.18S334.93,338.71,331.69,310.8Z" style="fill: rgb(38, 50, 56); transform-origin: 318.406px 316.515px;" id="elyk20h103vls" class="animable"></path><g id="elxif6wzf8lns"><path d="M332.8,255.65c-8.79,9.6-4.68,36.18-.85,50.82C333,288.16,333.28,269.93,332.8,255.65Z" style="opacity: 0.2; transform-origin: 330.297px 281.06px;" class="animable"></path></g><path d="M326,405.66l-13.1-.17a3.63,3.63,0,0,0-2.32.69c-3.8,3-6.69,3.09-11,3.86-5.17.93-2.61,6.13,1.2,6.19,6.3.1,5.77-.13,11.15-.05l3.72.05,1.68-1.71,1.49,1.71h6.88a1.26,1.26,0,0,0,1.28-1.39Z" style="fill: rgb(38, 50, 56); transform-origin: 311.829px 410.87px;" id="el0e3j0z86nzys" class="animable"></path><path d="M327,407c-.23,0-17.19-.54-17.19-.54l-.69-6.09,18.81.42Z" style="fill: rgb(39, 174, 96); transform-origin: 318.525px 403.685px;" id="elofwwg28qpk" class="animable"></path><path d="M361.93,310.8C359.17,274.72,358,238,353,229.94l-31.05-.4s12.35,60,16.69,84.06c4.51,25,16.65,90,16.65,90l14.93.18S369,338.71,361.93,310.8Z" style="fill: rgb(38, 50, 56); transform-origin: 346.085px 316.66px;" id="elrnrn0xwzgr8" class="animable"></path><path d="M370.93,405.66l-13.11-.17a3.62,3.62,0,0,0-2.31.69c-3.8,3-2.06,3.09-6.37,3.86-5.17.93-2.62,6.13,1.19,6.19,6.3.1,5.78-.13,11.15-.05l5.84.05.77-1.71,1,1.71h1.54a1.26,1.26,0,0,0,1.25-1.39Z" style="fill: rgb(38, 50, 56); transform-origin: 359.057px 410.871px;" id="eli4uyoptzoim" class="animable"></path><path d="M371.92,407c-.24,0-17.27-.54-17.27-.54L353,400.33l18.87.42Z" style="fill: rgb(39, 174, 96); transform-origin: 362.46px 403.665px;" id="elbfy76bey2ww" class="animable"></path><path d="M323.31,154.29s-3.69,6.57.55,11.9c-3.36,0-5.56,3.64-5.56,3.64s-4.47-9,2.14-15C320.9,154.15,323.31,154.29,323.31,154.29Z" style="fill: rgb(39, 174, 96); transform-origin: 320.341px 162.054px;" id="elhqecparjoha" class="animable"></path><path d="M354.33,232.68c-17.57.73-37.72.95-50.32,0a.45.45,0,0,1-.35-.19,8,8,0,0,1-1.09-4.64.47.47,0,0,1,.48-.43c16.63.45,33.16.43,50.54,0a.48.48,0,0,1,.45.29,10.44,10.44,0,0,1,.74,4.54A.46.46,0,0,1,354.33,232.68Z" style="fill: rgb(38, 50, 56); transform-origin: 328.674px 230.366px;" id="elbd6673kw5g" class="animable"></path><g id="elekud1afjz7g"><path d="M354.33,232.68c-17.57.73-37.72.95-50.32,0a.45.45,0,0,1-.35-.19,8,8,0,0,1-1.09-4.64.47.47,0,0,1,.48-.43c16.63.45,33.16.43,50.54,0a.48.48,0,0,1,.45.29,10.44,10.44,0,0,1,.74,4.54A.46.46,0,0,1,354.33,232.68Z" style="opacity: 0.2; transform-origin: 328.674px 230.366px;" class="animable"></path></g><path d="M320,227.14a19.08,19.08,0,0,0,.53,6.59c3.81.59,11.63.15,11.63.15a38.14,38.14,0,0,0-.24-6.64C325.92,227,320,227.14,320,227.14Z" style="fill: rgb(255, 255, 255); transform-origin: 326.063px 230.569px;" id="el8n3r4ogd7cx" class="animable"></path><path d="M355.13,166.72l.57.51.45.42.85.82c.55.54,1.05,1.08,1.56,1.63,1,1.09,1.95,2.22,2.85,3.36a76.76,76.76,0,0,1,5,7.06,89.91,89.91,0,0,1,7.53,15.24c.27.71.48,1.14.86,2.35a17.45,17.45,0,0,1,.64,3,23.11,23.11,0,0,1-.07,5.35,37.49,37.49,0,0,1-2.4,8.91,61.09,61.09,0,0,1-3.74,7.71,62.08,62.08,0,0,1-4.67,7,3.5,3.5,0,0,1-6.07-3.29l.06-.17a110.47,110.47,0,0,0,4.23-14.39,31.27,31.27,0,0,0,.76-6.65,10.28,10.28,0,0,0-.32-2.57,10,10,0,0,0-1-2.17,109.22,109.22,0,0,0-7.49-12.77c-1.37-2-2.83-4-4.33-5.82-.75-.94-1.53-1.83-2.3-2.71l-1.16-1.27-.56-.59-.26-.27-.17-.16a7,7,0,0,1,9.19-10.57Z" style="fill: rgb(255, 139, 123); transform-origin: 359.554px 198.196px;" id="elumopu021fcg" class="animable"></path><path d="M346.51,158.06c7.79,1.35,15.55,10.63,20.18,19.25A30.35,30.35,0,0,1,353,189.53s-9.14-8.9-12.79-15.42S339.18,156.79,346.51,158.06Z" style="fill: rgb(39, 174, 96); transform-origin: 352.633px 173.744px;" id="elq7i8fa34in" class="animable"></path><path d="M366.42,175.34a9.08,9.08,0,0,1,1.63,2.82c-2,3-6.74,10.93-15.41,12.48a4,4,0,0,1-1.77-2.16S360.88,183.72,366.42,175.34Z" style="fill: rgb(38, 50, 56); transform-origin: 359.46px 182.99px;" id="el4x506hmzair" class="animable"></path><path d="M340.87,157.36c-1.61-.69-1-1.6-1-1.6s7.41.26,12.48,1.87c.75.89-.13,2-.13,2S345.65,159.41,340.87,157.36Z" style="fill: rgb(38, 50, 56); transform-origin: 346.205px 157.695px;" id="eluli25arkf3" class="animable"></path><g id="elwb5i8k0t6v"><path d="M338.93,155.56s-1.68,5.86-9.36,10.64c3.36,0,5.61,6.13,5.61,6.13s7-8.22,5.38-16.33C340.09,155.28,338.93,155.56,338.93,155.56Z" style="opacity: 0.2; transform-origin: 335.187px 163.918px;" class="animable"></path></g><path d="M338.71,154.5s-2,6.34-9.14,11.7c3.36,0,5.69,3.63,5.69,3.63s6.88-5.72,5.3-13.83A6.76,6.76,0,0,0,338.71,154.5Z" style="fill: rgb(39, 174, 96); transform-origin: 335.183px 162.165px;" id="el57y1quadwpj" class="animable"></path><path d="M345.91,178.57c-.46,8.64-5.93,10.7-6.7,10.7s-6-2.06-5.54-10.7l6.25-2.46Z" style="fill: rgb(255, 255, 255); transform-origin: 339.776px 182.69px;" id="ely69vrmzeyuj" class="animable"></path><path d="M359.37,226.1l-6.16,5.3,8.17,5.31s5-5.48,2.52-8.6Z" style="fill: rgb(255, 139, 123); transform-origin: 358.9px 231.405px;" id="el7q0jcvwvueo" class="animable"></path><path d="M352.52,239.81l3.17,1.37a2.82,2.82,0,0,0,3.49-1.05l2.2-3.42-8.17-5.31-2.13,4.65A2.82,2.82,0,0,0,352.52,239.81Z" style="fill: rgb(255, 139, 123); transform-origin: 356.102px 236.407px;" id="elpk0w43vmuf8" class="animable"></path><path d="M317.7,119.13c-5.49.75-3.65,2.49,8.59,4.05s15.31.33,15.31.33S327.54,119.1,317.7,119.13Z" style="fill: rgb(38, 50, 56); transform-origin: 328.18px 121.55px;" id="el9dkv78vkh18" class="animable"></path><path d="M345.39,125.89s-10.75-4.37-27.69-6.76c-.21-2.49,1.84-5.13,1.84-5.13s-3.78-1.89-2.61-5.5,6.58-3.14,12.89-6c2.31,2.54,8.66,6.67,13,7.2,1.07,2.21,3.87,7.74,8.41,9.87-.07,2.41-4.58,3-4.58,3A4.6,4.6,0,0,1,345.39,125.89Z" style="fill: rgb(39, 174, 96); transform-origin: 333.968px 114.195px;" id="elypuvjxzdsdp" class="animable"></path><g id="el0v5g9vjqb9gf"><path d="M346.64,122.57c-3.93-3.57-17.89-10.09-27.1-8.57,0,0-2.05,2.65-1.84,5.13,16.94,2.39,27.69,6.76,27.69,6.76A4.6,4.6,0,0,0,346.64,122.57Z" style="opacity: 0.3; transform-origin: 332.164px 119.832px;" class="animable"></path></g><path d="M331.44,109.84c-1.21,6.16-5.41,7.27-6,7.21s-4.19-1.88-3-8l4.83-1.34Z" style="fill: rgb(255, 255, 255); transform-origin: 326.82px 112.381px;" id="els9xvsr6c98e" class="animable"></path><path d="M251.75,210.78a2.5,2.5,0,0,1-2.48-2.2l-7.14-58.19a2.5,2.5,0,0,1,5-.61L254.23,208a2.49,2.49,0,0,1-2.17,2.79Z" style="fill: rgb(38, 50, 56); transform-origin: 248.181px 179.181px;" id="eltthj61dws3e" class="animable"></path><path d="M250.16,184.6c-.61-2.24.54-2.57-.57-5.75-.59-1.69,1.35-3,1.59-1.64.9,4.95,7.47,7.72,5.19,10.85S250.76,186.84,250.16,184.6Z" style="fill: rgb(255, 139, 123); transform-origin: 253.163px 182.9px;" id="els5byzen6zeo" class="animable"></path><g id="elezqrunibsah"><circle cx="238.13" cy="97.23" r="56.71" style="fill: rgb(39, 174, 96); transform-origin: 238.13px 97.23px; transform: rotate(-86.41deg);" class="animable"></circle></g><g id="el59es6899sc2"><circle cx="238.13" cy="97.23" r="45.8" style="fill: rgb(255, 255, 255); transform-origin: 238.13px 97.23px; transform: rotate(-70.49deg);" class="animable"></circle></g><path d="M267.87,89.49c-3.76-5.08-11,0-13.17,5.34A14.52,14.52,0,0,0,253.55,99l-2.39-16.31-1.89-15.46a5.15,5.15,0,0,0-10.22,1.25l-.47-3.85a5.14,5.14,0,1,0-10.21,1.26l.66,5.36a5.15,5.15,0,0,0-6.38-4.36h0a5.16,5.16,0,0,0-3.84,5.62l.82,6.69a5.14,5.14,0,0,0-6.38-4.36h0a5.14,5.14,0,0,0-3.83,5.61l1.64,13.37,1.17,9.59L213.78,116c1.1,9,4.61,14.08,9.82,16.37,8,3.51,22.65,3.55,29.23-1.79,5.76-4.67,9.46-15.92,10.35-22.89S269.4,91.54,267.87,89.49Z" style="fill: rgb(38, 50, 56); transform-origin: 238.763px 97.4713px;" id="elxyu2lo4u7i" class="animable"></path><g id="el1zussycko45"><rect x="232.21" y="42.47" width="11.85" height="109.53" style="fill: rgb(39, 174, 96); transform-origin: 238.135px 97.235px; transform: rotate(38.01deg);" class="animable"></rect></g></g><g id="freepik--error-unauthorized--inject-5" class="animable" style="transform-origin: 151.878px 182.448px;"><path d="M80.44,180.08v-18.2H93.61V164H82.85v5.58H92.92v2.14H82.85v6.19H94v2.15Z" style="fill: rgb(38, 50, 56); transform-origin: 87.22px 170.98px;" id="elutsmuizyyj" class="animable"></path><path d="M97.05,180.08V166.89h2v2a5.55,5.55,0,0,1,1.42-1.85,2.45,2.45,0,0,1,1.43-.45,4.37,4.37,0,0,1,2.3.73l-.77,2.07a3.19,3.19,0,0,0-1.64-.48,2.07,2.07,0,0,0-1.31.44,2.4,2.4,0,0,0-.84,1.22,8.94,8.94,0,0,0-.37,2.61v6.9Z" style="fill: rgb(38, 50, 56); transform-origin: 100.625px 173.335px;" id="eloierjg6b7rm" class="animable"></path><path d="M105.52,180.08V166.89h2v2A5.55,5.55,0,0,1,109,167a2.47,2.47,0,0,1,1.43-.45,4.37,4.37,0,0,1,2.3.73l-.77,2.07a3.19,3.19,0,0,0-1.64-.48,2.07,2.07,0,0,0-1.31.44,2.4,2.4,0,0,0-.84,1.22,8.94,8.94,0,0,0-.37,2.61v6.9Z" style="fill: rgb(38, 50, 56); transform-origin: 109.125px 173.315px;" id="elrl3ckjtx0al" class="animable"></path><path d="M113.18,173.49q0-3.66,2-5.43a6.1,6.1,0,0,1,4.14-1.47,5.91,5.91,0,0,1,4.45,1.79,6.79,6.79,0,0,1,1.73,4.92,8.74,8.74,0,0,1-.77,4,5.38,5.38,0,0,1-2.22,2.26,6.44,6.44,0,0,1-3.19.81,5.93,5.93,0,0,1-4.47-1.77A7.1,7.1,0,0,1,113.18,173.49Zm2.3,0a5.64,5.64,0,0,0,1.1,3.79,3.69,3.69,0,0,0,5.55,0,5.77,5.77,0,0,0,1.11-3.87,5.44,5.44,0,0,0-1.11-3.7,3.7,3.7,0,0,0-5.55,0A5.64,5.64,0,0,0,115.48,173.49Z" style="fill: rgb(38, 50, 56); transform-origin: 119.336px 173.481px;" id="elln3q87k4dcg" class="animable"></path><path d="M128.13,180.08V166.89h2v2a5.42,5.42,0,0,1,1.42-1.85,2.45,2.45,0,0,1,1.43-.45,4.37,4.37,0,0,1,2.3.73l-.77,2.07a3.22,3.22,0,0,0-1.64-.48,2.1,2.1,0,0,0-1.32.44,2.39,2.39,0,0,0-.83,1.22,8.62,8.62,0,0,0-.37,2.61v6.9Z" style="fill: rgb(38, 50, 56); transform-origin: 131.705px 173.335px;" id="elykker077kmi" class="animable"></path><path d="M88.75,202.69v-1.94A4.84,4.84,0,0,1,84.56,203a5.27,5.27,0,0,1-2.17-.45,3.62,3.62,0,0,1-1.51-1.12,4.54,4.54,0,0,1-.69-1.66,11.66,11.66,0,0,1-.13-2.09V189.5h2.23v7.31a13,13,0,0,0,.14,2.36,2.37,2.37,0,0,0,.89,1.39,2.82,2.82,0,0,0,1.69.5,3.72,3.72,0,0,0,1.89-.51,2.94,2.94,0,0,0,1.25-1.41,7.13,7.13,0,0,0,.36-2.57V189.5h2.24v13.19Z" style="fill: rgb(38, 50, 56); transform-origin: 85.4027px 196.251px;" id="el959bbljp50f" class="animable"></path><path d="M94.25,202.69V189.5h2v1.87a4.76,4.76,0,0,1,4.2-2.17,5.38,5.38,0,0,1,2.19.43,3.49,3.49,0,0,1,1.5,1.12,4.53,4.53,0,0,1,.7,1.66,13.12,13.12,0,0,1,.12,2.17v8.11h-2.23v-8a5.84,5.84,0,0,0-.27-2,2.14,2.14,0,0,0-.92-1.08,2.92,2.92,0,0,0-1.56-.4,3.67,3.67,0,0,0-2.47.9c-.69.61-1,1.76-1,3.45v7.2Z" style="fill: rgb(38, 50, 56); transform-origin: 99.6075px 195.978px;" id="eljrql7ndjj4k" class="animable"></path><path d="M117,201.06a8.2,8.2,0,0,1-2.4,1.49,6.84,6.84,0,0,1-2.46.44,4.79,4.79,0,0,1-3.34-1.07,3.48,3.48,0,0,1-1.17-2.71,3.64,3.64,0,0,1,1.6-3.05,5.28,5.28,0,0,1,1.61-.74,17.67,17.67,0,0,1,2-.33,20.57,20.57,0,0,0,4-.77c0-.31,0-.5,0-.59a2.46,2.46,0,0,0-.63-1.92,3.72,3.72,0,0,0-2.55-.76,4,4,0,0,0-2.33.55,3.38,3.38,0,0,0-1.11,2l-2.18-.3a5.22,5.22,0,0,1,1-2.26,4.23,4.23,0,0,1,2-1.33,8.81,8.81,0,0,1,3-.47,7.8,7.8,0,0,1,2.75.4,3.59,3.59,0,0,1,1.55,1,3.51,3.51,0,0,1,.7,1.52,13.2,13.2,0,0,1,.11,2.06v3a33.25,33.25,0,0,0,.14,4,5.18,5.18,0,0,0,.57,1.58h-2.34A4.7,4.7,0,0,1,117,201.06Zm-.19-5a16.41,16.41,0,0,1-3.65.84,8.56,8.56,0,0,0-2,.45,1.93,1.93,0,0,0-.88.73,1.88,1.88,0,0,0-.31,1.06,1.91,1.91,0,0,0,.67,1.49,2.89,2.89,0,0,0,2,.6,4.59,4.59,0,0,0,2.3-.57,3.51,3.51,0,0,0,1.48-1.55,5.37,5.37,0,0,0,.36-2.23Z" style="fill: rgb(38, 50, 56); transform-origin: 113.744px 196.118px;" id="elm3o9q0gmjqa" class="animable"></path><path d="M131.19,202.69v-1.94A4.84,4.84,0,0,1,127,203a5.35,5.35,0,0,1-2.18-.45,3.65,3.65,0,0,1-1.5-1.12,4.22,4.22,0,0,1-.69-1.66,11.45,11.45,0,0,1-.14-2.09V189.5h2.24v7.31a13,13,0,0,0,.14,2.36,2.37,2.37,0,0,0,.89,1.39,2.82,2.82,0,0,0,1.69.5,3.72,3.72,0,0,0,1.89-.51,2.94,2.94,0,0,0,1.25-1.41,7.13,7.13,0,0,0,.36-2.57V189.5h2.24v13.19Z" style="fill: rgb(38, 50, 56); transform-origin: 127.838px 196.251px;" id="elifiw7h6vgvn" class="animable"></path><path d="M141.57,200.69l.33,2a7.86,7.86,0,0,1-1.69.2,3.9,3.9,0,0,1-1.89-.38,2.22,2.22,0,0,1-.95-1,8,8,0,0,1-.27-2.63v-7.59h-1.64V189.5h1.64v-3.27l2.22-1.34v4.61h2.25v1.74h-2.25V199a3.82,3.82,0,0,0,.12,1.23.9.9,0,0,0,.39.43,1.45,1.45,0,0,0,.76.17A6.92,6.92,0,0,0,141.57,200.69Z" style="fill: rgb(38, 50, 56); transform-origin: 138.68px 193.893px;" id="el71jbfp9s75k" class="animable"></path><path d="M143.76,202.69V184.48H146V191a5,5,0,0,1,3.95-1.81,5.28,5.28,0,0,1,2.55.58,3.45,3.45,0,0,1,1.55,1.59,7.41,7.41,0,0,1,.46,3v8.36h-2.23v-8.36a3.47,3.47,0,0,0-.73-2.44,2.71,2.71,0,0,0-2.06-.76,3.68,3.68,0,0,0-1.87.51,2.9,2.9,0,0,0-1.24,1.4,6.37,6.37,0,0,0-.38,2.43v7.22Z" style="fill: rgb(38, 50, 56); transform-origin: 149.14px 193.6px;" id="eltp3k7isxyh" class="animable"></path><path d="M157.07,196.09q0-3.66,2-5.42a6.12,6.12,0,0,1,4.15-1.47A5.94,5.94,0,0,1,167.7,191a6.79,6.79,0,0,1,1.73,4.93,8.84,8.84,0,0,1-.76,4,5.36,5.36,0,0,1-2.23,2.27,6.43,6.43,0,0,1-3.18.81,5.91,5.91,0,0,1-4.48-1.78A7.09,7.09,0,0,1,157.07,196.09Zm2.3,0a5.67,5.67,0,0,0,1.1,3.8,3.56,3.56,0,0,0,2.79,1.26,3.51,3.51,0,0,0,2.77-1.27,5.77,5.77,0,0,0,1.1-3.86,5.46,5.46,0,0,0-1.11-3.71,3.69,3.69,0,0,0-5.55,0A5.59,5.59,0,0,0,159.37,196.09Z" style="fill: rgb(38, 50, 56); transform-origin: 163.247px 196.106px;" id="elt7dqo5fqmm9" class="animable"></path><path d="M172,202.69V189.5h2v2a5.32,5.32,0,0,1,1.42-1.85,2.45,2.45,0,0,1,1.43-.45,4.36,4.36,0,0,1,2.3.72l-.77,2.08a3.12,3.12,0,0,0-1.64-.49,2.11,2.11,0,0,0-1.31.44,2.45,2.45,0,0,0-.84,1.22,9,9,0,0,0-.37,2.61v6.91Z" style="fill: rgb(38, 50, 56); transform-origin: 175.575px 195.945px;" id="el72wr1mvsl5v" class="animable"></path><path d="M180.53,187.05v-2.57h2.24v2.57Zm0,15.64V189.5h2.24v13.19Z" style="fill: rgb(38, 50, 56); transform-origin: 181.65px 193.585px;" id="el6as9v19sxtc" class="animable"></path><path d="M185,202.69v-1.81l8.4-9.64c-1,0-1.8.07-2.52.07h-5.38V189.5h10.78V191l-7.14,8.37-1.38,1.53q1.5-.12,2.82-.12h6.1v1.93Z" style="fill: rgb(38, 50, 56); transform-origin: 190.84px 196.105px;" id="elorb8e4ozqkc" class="animable"></path><path d="M207.92,198.44l2.31.29a5.66,5.66,0,0,1-2,3.14,6.1,6.1,0,0,1-3.77,1.12,6,6,0,0,1-4.59-1.79,6.94,6.94,0,0,1-1.7-5,7.3,7.3,0,0,1,1.72-5.17,5.77,5.77,0,0,1,4.44-1.84,5.65,5.65,0,0,1,4.33,1.8,7.19,7.19,0,0,1,1.67,5.07c0,.13,0,.33,0,.6h-9.84a5.14,5.14,0,0,0,1.23,3.32,3.68,3.68,0,0,0,2.76,1.16,3.43,3.43,0,0,0,2.1-.65A4.3,4.3,0,0,0,207.92,198.44Zm-7.34-3.61h7.36a4.5,4.5,0,0,0-.84-2.5,3.43,3.43,0,0,0-2.77-1.29,3.54,3.54,0,0,0-2.59,1A4.07,4.07,0,0,0,200.58,194.83Z" style="fill: rgb(38, 50, 56); transform-origin: 204.25px 196.092px;" id="elqcrwa5qx6pn" class="animable"></path><path d="M221.59,202.69V201a4.09,4.09,0,0,1-3.69,2,5.19,5.19,0,0,1-2.9-.87,5.77,5.77,0,0,1-2.05-2.43,8.44,8.44,0,0,1-.72-3.58,9.41,9.41,0,0,1,.66-3.59,5.11,5.11,0,0,1,2-2.46,5.3,5.3,0,0,1,2.94-.86,4.47,4.47,0,0,1,2.13.5,4.58,4.58,0,0,1,1.51,1.31v-6.53h2.23v18.21Zm-7.06-6.58a5.7,5.7,0,0,0,1.06,3.78,3.24,3.24,0,0,0,2.52,1.26,3.15,3.15,0,0,0,2.49-1.2,5.49,5.49,0,0,0,1-3.66,6.22,6.22,0,0,0-1-4,3.21,3.21,0,0,0-2.57-1.27,3.09,3.09,0,0,0-2.49,1.22A6,6,0,0,0,214.53,196.11Z" style="fill: rgb(38, 50, 56); transform-origin: 217.964px 193.747px;" id="eltwf4t4j7yli" class="animable"></path></g><defs>     <filter id="active" height="200%">         <feMorphology in="SourceAlpha" result="DILATED" operator="dilate" radius="2"></feMorphology>                <feFlood flood-color="#32DFEC" flood-opacity="1" result="PINK"></feFlood>        <feComposite in="PINK" in2="DILATED" operator="in" result="OUTLINE"></feComposite>        <feMerge>            <feMergeNode in="OUTLINE"></feMergeNode>            <feMergeNode in="SourceGraphic"></feMergeNode>        </feMerge>    </filter>    <filter id="hover" height="200%">        <feMorphology in="SourceAlpha" result="DILATED" operator="dilate" radius="2"></feMorphology>                <feFlood flood-color="#ff0000" flood-opacity="0.5" result="PINK"></feFlood>        <feComposite in="PINK" in2="DILATED" operator="in" result="OUTLINE"></feComposite>        <feMerge>            <feMergeNode in="OUTLINE"></feMergeNode>            <feMergeNode in="SourceGraphic"></feMergeNode>        </feMerge>            <feColorMatrix type="matrix" values="0   0   0   0   0                0   1   0   0   0                0   0   0   0   0                0   0   0   1   0 "></feColorMatrix>    </filter></defs>
</svg>