<svg class="animated" id="freepik_stories-wallet" xmlns="http://www.w3.org/2000/svg" viewBox="0 0 500 500" version="1.1" xmlns:xlink="http://www.w3.org/1999/xlink" xmlns:svgjs="http://svgjs.com/svgjs">
    <style>svg#freepik_stories-wallet:not(.animated) .animable {opacity: 0;}svg#freepik_stories-wallet.animated #freepik--Coins--inject-2 {animation: 2s 1 forwards cubic-bezier(.36,-0.01,.5,1.38) slideUp,1.5s Infinite  linear floating;animation-delay: 2s,4s;opacity: 0}svg#freepik_stories-wallet.animated #freepik--Wallet--inject-2 {animation: 1s 1 forwards cubic-bezier(.36,-0.01,.5,1.38) zoomIn;animation-delay: 0s;}svg#freepik_stories-wallet.animated #freepik--Card--inject-2 {animation: 1s 1 forwards cubic-bezier(.36,-0.01,.5,1.38) slideUp,3s Infinite  linear floating;animation-delay: 1s,2s;opacity: 0}            @keyframes slideUp {                0% {                    opacity: 0;                    transform: translateY(30px);                }                100% {                    opacity: 1;                    transform: inherit;                }            }                    @keyframes floating {                0% {                    opacity: 1;                    transform: translateY(0px);                }                50% {                    transform: translateY(-10px);                }                100% {                    opacity: 1;                    transform: translateY(0px);                }            }                    @keyframes zoomIn {                0% {                    opacity: 0;                    transform: scale(0.5);                }                100% {                    opacity: 1;                    transform: scale(1);                }            }        </style><g id="freepik--background-simple--inject-2" class="animable" style="transform-origin: 225.137px 243.63px;"><path d="M183.88,211.87c54.38-26.4,166.7-145.92,216.65-50.58,41.8,79.78-50.65,154.62-106,182-72,35.63-177.83,21.56-234.8-45.79-24.5-29-33.34-70,9.4-77.63,14.42-2.58,38.9,6.82,55.2,6C145.22,224.82,165.68,220.7,183.88,211.87Z" style="fill: rgb(39, 174, 96); transform-origin: 225.137px 243.63px;" id="els2lynnqqiye" class="animable"></path><g id="eleurdwxhrcf"><path d="M183.88,211.87c54.38-26.4,166.7-145.92,216.65-50.58,41.8,79.78-50.65,154.62-106,182-72,35.63-177.83,21.56-234.8-45.79-24.5-29-33.34-70,9.4-77.63,14.42-2.58,38.9,6.82,55.2,6C145.22,224.82,165.68,220.7,183.88,211.87Z" style="fill: rgb(255, 255, 255); opacity: 0.9; isolation: isolate; transform-origin: 225.137px 243.63px;" class="animable"></path></g></g><g id="freepik--Coins--inject-2" class="animable animator-active" style="transform-origin: 225.609px 108.359px;"><path d="M214.49,155.68c-2.21,5.37-15.22,5-28.85-.62s-22.9-14.53-20.69-19.9c.52-1.24,2-5.89,3.48-6.53,5.08-2.15,14.75,2.68,25.22,7,9.75,4,20.9,6.61,22.63,11.9C217.32,150.75,215.12,154.15,214.49,155.68Z" style="fill: rgb(39, 174, 96); transform-origin: 190.59px 143.801px;" id="el9g6etzzctvo" class="animable"></path><g id="elatbacmii6f4"><path d="M216.28,147.53c.83,4.21-1,6.23-1.79,8.15s-3.1,3.18-6.33,3.62a11.35,11.35,0,0,1-1.22.14,33.4,33.4,0,0,1-7.41-.39c-.35,0-.7-.11-1.06-.17A58.91,58.91,0,0,1,190,156.7l-1-.34c-1.11-.39-2.25-.82-3.39-1.29s-2.22-1-3.29-1.47l-.92-.44a59.56,59.56,0,0,1-7.27-4.26l-.82-.58a32.65,32.65,0,0,1-5.53-4.94c-.25-.28-.48-.55-.7-.83-2.15-2.72-3-5.32-2.15-7.39.56-1.33,1.76-5.88,3.48-6.54a11.93,11.93,0,0,1,6.47,0l1,.24c5,1.28,11.3,4.13,17.73,6.78,7.58,3.13,16.55,6.38,20.95,10.13a10,10,0,0,1,.75.7A9,9,0,0,1,216.28,147.53Z" style="opacity: 0.2; transform-origin: 190.548px 143.835px;" class="animable"></path></g><g id="elki870f864oq"><g style="opacity: 0.2; transform-origin: 171.74px 135.445px;" class="animable"><path d="M176.38,128l-.46.84-8.12,14.53c-.25-.28-.48-.55-.7-.83l7.8-13.94.61-1.08Z" id="eln4gqqdew1xk" class="animable" style="transform-origin: 171.74px 135.445px;"></path></g></g><g id="elfdrix7x4g95"><g style="opacity: 0.2; transform-origin: 177.925px 141.2px;" class="animable"><path d="M182.52,133.93l-8.37,15-.82-.58,8.32-14.88Z" id="elxrocmswlyfb" class="animable" style="transform-origin: 177.925px 141.2px;"></path></g></g><g id="ell4nz3fydk9b"><g style="opacity: 0.2; transform-origin: 193.455px 149.35px;" class="animable"><path d="M197.91,142.53,190,156.7l-1-.34L197,142Z" id="el4mjtb19gjgh" class="animable" style="transform-origin: 193.455px 149.35px;"></path></g></g><g id="el75hlhcx1l9g"><g style="opacity: 0.2; transform-origin: 186.085px 145.8px;" class="animable"><path d="M190.75,138.53l-8.41,15.07-.92-.44L189.88,138Z" id="elxvgjan1yuwr" class="animable" style="transform-origin: 186.085px 145.8px;"></path></g></g><g id="elxw9wy8tm1jj"><g style="opacity: 0.2; transform-origin: 202.855px 151.91px;" class="animable"><path d="M207.24,145.27l-7.71,13.78c-.35,0-.7-.11-1.06-.17l7.89-14.11Z" id="elu52euaz8o3n" class="animable" style="transform-origin: 202.855px 151.91px;"></path></g></g><path d="M216.22,151c-2.21,5.37-15.06,5.16-28.7-.47s-22.9-14.53-20.68-19.9,15.06-5.15,28.7.47S218.43,145.6,216.22,151Z" style="fill: rgb(39, 174, 96); transform-origin: 191.529px 140.817px;" id="el7ro1m09utjr" class="animable"></path><g id="elbgx6x1u8hd"><path d="M211.58,149.05c-1.56,3.79-11.58,3.26-22.37-1.19s-18.27-11.14-16.71-14.93,11.58-3.26,22.38,1.19S213.15,145.26,211.58,149.05Z" style="fill: rgb(255, 255, 255); opacity: 0.2; transform-origin: 192.041px 140.99px;" class="animable"></path></g><path d="M283.41,107.14c3.56,4.59-3.22,15.7-14.89,24.73s-24,12.63-27.55,8c-.82-1.06-4.14-4.61-3.94-6.27.67-5.47,9.66-11.45,18.62-18.39,8.34-6.46,16.13-14.84,21.58-13.71C280.54,102.23,282.4,105.84,283.41,107.14Z" style="fill: rgb(39, 174, 96); transform-origin: 260.69px 121.644px;" id="elmjlhhmifjlb" class="animable"></path><g id="elg125ekl33h6"><path d="M277.23,101.54c4.07,1.38,4.91,4,6.18,5.6s1.22,4.27,0,7.3c-.14.37-.31.74-.49,1.12a33.12,33.12,0,0,1-4,6.24c-.21.28-.44.55-.67.83a58.73,58.73,0,0,1-6.12,6.28l-.77.67c-.89.77-1.83,1.54-2.8,2.29s-1.94,1.46-2.92,2.13c-.27.2-.56.39-.83.58a58.57,58.57,0,0,1-7.32,4.18c-.31.16-.61.29-.9.43a33,33,0,0,1-7.05,2.34c-.36.08-.71.14-1.06.19-3.43.51-6.11,0-7.48-1.81-.88-1.14-4.23-4.45-3.94-6.26a11.79,11.79,0,0,1,3.21-5.63c.22-.25.46-.5.71-.76,3.61-3.74,9.2-7.75,14.7-12,6.49-5,13.77-11.19,19.2-13.13a10.2,10.2,0,0,1,1-.31A9.43,9.43,0,0,1,277.23,101.54Z" style="opacity: 0.2; transform-origin: 260.693px 121.724px;" class="animable"></path></g><g id="elfjkyb0x811n"><g style="opacity: 0.2; transform-origin: 244.555px 134.08px;" class="animable"><path d="M240.45,126.44l.5.82,8.56,14.27c-.36.08-.71.14-1.06.19L240.24,128,239.6,127Z" id="el8q38jg9h1d" class="animable" style="transform-origin: 244.555px 134.08px;"></path></g></g><g id="el3f5bnyov86"><g style="opacity: 0.2; transform-origin: 252.62px 131.625px;" class="animable"><path d="M248.64,124.06l8.82,14.7c-.31.16-.61.29-.9.43l-8.78-14.62Z" id="elly9jp5dwmom" class="animable" style="transform-origin: 252.62px 131.625px;"></path></g></g><g id="elrdyxvjp75q"><g style="opacity: 0.2; transform-origin: 267.495px 122.295px;" class="animable"><path d="M263.75,115l8.35,13.92-.77.67-8.44-14.08Z" id="el7ozzkviwwap" class="animable" style="transform-origin: 267.495px 122.295px;"></path></g></g><g id="elqfdhpoyyoc"><g style="opacity: 0.2; transform-origin: 260.735px 126.895px;" class="animable"><path d="M256.73,119.21,265.61,134c-.27.2-.56.39-.83.58l-8.92-14.86Z" id="el938lhtqxw4c" class="animable" style="transform-origin: 260.735px 126.895px;"></path></g></g><g id="elhir4waaz9jq"><g style="opacity: 0.2; transform-origin: 274.4px 115.44px;" class="animable"><path d="M270.77,108.25l8.12,13.55c-.21.28-.44.55-.67.83l-8.31-13.86Z" id="elhu20ypldceu" class="animable" style="transform-origin: 274.4px 115.44px;"></path></g></g><g id="elgkiw9106pug"><ellipse cx="259.06" cy="119.65" rx="26.71" ry="10.51" style="fill: rgb(39, 174, 96); transform-origin: 259.06px 119.65px; transform: rotate(-37.76deg);" class="animable"></ellipse></g><g id="elffwknu6jhq"><ellipse cx="259.5" cy="119.31" rx="21.14" ry="7.43" style="fill: rgb(255, 255, 255); opacity: 0.2; transform-origin: 259.5px 119.31px; transform: rotate(-37.76deg);" class="animable"></ellipse></g><path d="M235.14,85.64C234,92.22,219.24,95,202.52,92s-29.33-10.73-28.16-17.31c.27-1.53.74-7.1,2.31-8.21,5.19-3.66,17.25-.6,30.09,1.68,12,2.13,25.13,2.3,28.38,7.83C237.11,79.39,235.47,83.76,235.14,85.64Z" style="fill: rgb(39, 174, 96); transform-origin: 205.189px 78.9936px;" id="el84ghiqnrv9a" class="animable"></path><g id="eluznyi8h1k"><path d="M235.14,76c2,4.54.41,7.25,0,9.61s-2.7,4.33-6.22,5.63c-.43.17-.88.31-1.34.45a38.69,38.69,0,0,1-8.44,1.39c-.41,0-.81,0-1.23.07a68.73,68.73,0,0,1-10.08-.37l-1.17-.15c-1.35-.17-2.74-.37-4.13-.62s-2.74-.53-4.07-.84c-.38-.08-.76-.18-1.14-.27a66.94,66.94,0,0,1-9.22-3c-.37-.14-.72-.3-1.07-.44a38.07,38.07,0,0,1-7.44-4.21c-.35-.25-.67-.5-1-.76-3.1-2.53-4.69-5.25-4.24-7.78.3-1.64.54-7,2.3-8.21s4.28-1.59,7.28-1.6h1.2c6,.2,13.73,1.87,21.62,3.27,9.3,1.66,20.19,3.11,26.05,6.25a11,11,0,0,1,1,.6A10.64,10.64,0,0,1,235.14,76Z" style="opacity: 0.2; transform-origin: 205.201px 79.0482px;" class="animable"></path></g><g id="elu2cdqaz82e"><g style="opacity: 0.2; transform-origin: 182.02px 73.41px;" class="animable"><path d="M185.46,63.88l-.32,1.05-5.56,18.34c-.35-.25-.67-.5-1-.76l5.34-17.59.42-1.37Z" id="el80vew33ux96" class="animable" style="transform-origin: 182.02px 73.41px;"></path></g></g><g id="elkzy0vqco1te"><g style="opacity: 0.2; transform-origin: 190.42px 78.27px;" class="animable"><path d="M193.82,69l-5.73,18.89c-.37-.14-.72-.3-1.07-.44l5.7-18.8Z" id="eljc02ztzp1xh" class="animable" style="transform-origin: 190.42px 78.27px;"></path></g></g><g id="eli00hxx51lw"><g style="opacity: 0.2; transform-origin: 209.95px 83.695px;" class="animable"><path d="M213.25,74.92l-5.43,17.89-1.17-.15,5.49-18.08Z" id="eli7nop8auqy" class="animable" style="transform-origin: 209.95px 83.695px;"></path></g></g><g id="el6vlyz711hcq"><g style="opacity: 0.2; transform-origin: 200.765px 81.5px;" class="animable"><path d="M204.22,72.18l-5.77,19c-.38-.08-.76-.18-1.14-.27l5.8-19.09Z" id="el4gk388m4dp7" class="animable" style="transform-origin: 200.765px 81.5px;"></path></g></g><g id="elv6663l1zb0f"><g style="opacity: 0.2; transform-origin: 221.16px 84.275px;" class="animable"><path d="M224.42,75.7l-5.29,17.41c-.41,0-.81,0-1.23.07l5.41-17.81Z" id="ele0s1ry3wdqv" class="animable" style="transform-origin: 221.16px 84.275px;"></path></g></g><g id="el9893290gofw"><ellipse cx="205.64" cy="74.52" rx="12.1" ry="30.76" style="fill: rgb(39, 174, 96); transform-origin: 205.64px 74.52px; transform: rotate(-79.91deg);" class="animable"></ellipse></g><g id="elo8gv0tqm5be"><ellipse cx="206.27" cy="74.63" rx="8.55" ry="24.34" style="fill: rgb(255, 255, 255); opacity: 0.2; transform-origin: 206.27px 74.63px; transform: rotate(-79.91deg);" class="animable"></ellipse></g></g><g id="freepik--Wallet--inject-2" class="animable" style="transform-origin: 203.544px 287.989px;"><path d="M322.44,253.63l-102.91,6A30.32,30.32,0,0,0,209,262.19l-111.78,50a9.36,9.36,0,0,0-5.4,10.46L110.29,410a9.45,9.45,0,0,0,13.5,6.38l110.33-55.08L336,357.89a8.83,8.83,0,0,0,8.49-10.18l-13.63-83.64C330.15,259.75,326.87,253.5,322.44,253.63Z" style="fill: rgb(39, 174, 96); transform-origin: 218.111px 335.515px;" id="elluumh784lo" class="animable"></path><g id="elp2gly5ebh2"><path d="M322.44,253.63l-102.91,6A30.32,30.32,0,0,0,209,262.19l-111.78,50a9.36,9.36,0,0,0-5.4,10.46L110.29,410a9.45,9.45,0,0,0,13.5,6.38l110.33-55.08L336,357.89a8.83,8.83,0,0,0,8.49-10.18l-13.63-83.64C330.15,259.75,326.87,253.5,322.44,253.63Z" style="opacity: 0.1; transform-origin: 218.111px 335.515px;" class="animable"></path></g><g id="elpg99fxlp6l"><rect x="100.6" y="202.73" width="73.45" height="142.99" style="fill: rgb(39, 174, 96); transform-origin: 137.325px 274.225px; transform: rotate(-42.67deg);" class="animable"></rect></g><g id="elofocs5nh9p"><polygon points="212.78 301.9 158.77 351.68 61.87 246.55 97.31 213.88 115.88 196.76 118.97 200.12 212.78 301.9" style="fill: rgb(250, 250, 250); opacity: 0.5; transform-origin: 137.325px 274.22px;" class="animable"></polygon></g><g id="elusubz810vf"><rect x="105.32" y="207.45" width="64.81" height="133.75" style="fill: none; stroke: rgb(39, 174, 96); stroke-miterlimit: 10; transform-origin: 137.725px 274.325px; transform: rotate(-42.67deg);" class="animable"></rect></g><g id="eltx6x37c9cqa"><ellipse cx="137" cy="273.55" rx="13.46" ry="16.88" style="fill: rgb(39, 174, 96); transform-origin: 137px 273.55px; transform: rotate(-42.67deg);" class="animable"></ellipse></g><g id="elhsf5er3v9je"><polygon points="158.2 309.01 139.01 315.64 97.31 213.88 115.88 196.76 118.97 200.12 158.2 309.01" style="opacity: 0.1; transform-origin: 127.755px 256.2px;" class="animable"></polygon></g><g id="elx7e8ljrgb7d"><rect x="115.05" y="163.81" width="73.45" height="142.99" style="fill: rgb(39, 174, 96); transform-origin: 151.775px 235.305px; transform: rotate(-19.93deg);" class="animable"></rect></g><g id="el0tpxk7lo0fgo"><rect x="115.05" y="163.81" width="73.45" height="142.99" style="fill: rgb(250, 250, 250); opacity: 0.5; transform-origin: 151.775px 235.305px; transform: rotate(-19.93deg);" class="animable"></rect></g><g id="eli0qfct03vn"><rect x="119.69" y="168.68" width="64.81" height="133.75" style="fill: none; stroke: rgb(39, 174, 96); stroke-miterlimit: 10; transform-origin: 152.095px 235.555px; transform: rotate(-19.93deg);" class="animable"></rect></g><g id="el82rhkbtatkc"><ellipse cx="151.74" cy="234.56" rx="13.46" ry="16.88" style="fill: rgb(39, 174, 96); transform-origin: 151.74px 234.56px; transform: rotate(-19.93deg);" class="animable"></ellipse></g><path d="M323.11,257.18l-101.5,5.72a29.06,29.06,0,0,0-10.41,2.55L101.06,315.17a9.35,9.35,0,0,0-5.3,10.44L114.23,413a9.35,9.35,0,0,0,13.34,6.41l108.7-54.77,100.48-3.18a8.75,8.75,0,0,0,8.36-10.15l-13.67-83.63C330.73,263.32,327.49,257.06,323.11,257.18Z" style="fill: rgb(39, 174, 96); transform-origin: 220.392px 338.791px;" id="el8mxrer6j5nh" class="animable"></path><g id="el13lsp1artrgj"><line x1="225.74" y1="278.2" x2="312.83" y2="272.84" style="fill: none; stroke: rgb(0, 0, 0); stroke-linecap: round; stroke-linejoin: round; stroke-width: 2px; opacity: 0.2; transform-origin: 269.285px 275.52px;" class="animable"></line></g><g id="el7aga1hdpfgb"><line x1="215.31" y1="280.45" x2="231.22" y2="353.53" style="fill: none; stroke: rgb(0, 0, 0); stroke-linecap: round; stroke-linejoin: round; stroke-width: 2px; opacity: 0.2; transform-origin: 223.265px 316.99px;" class="animable"></line></g><g id="elrd8g4z1lwwk"><path d="M109.23,346.43l11.22,56.21S129.05,380.34,109.23,346.43Z" style="fill: rgb(250, 250, 250); opacity: 0.2; transform-origin: 115.768px 374.535px;" class="animable"></path></g><g id="el5cgxph82cy8"><path d="M110.7,347.09c.39,1,99.66-41.6,99.66-41.6A52.24,52.24,0,0,1,183,352.89C153.12,369.64,110.7,347.09,110.7,347.09Z" style="fill: rgb(250, 250, 250); opacity: 0.2; transform-origin: 160.54px 332.285px;" class="animable"></path></g><circle cx="176.64" cy="344.45" r="4.3" style="fill: rgb(39, 174, 96); transform-origin: 176.64px 344.45px;" id="elldrkhhom86f" class="animable"></circle><g id="el8xuay2oyuwi"><path d="M210.41,305.49s12.31,18.53,9.33,50.09" style="opacity: 0.2; transform-origin: 215.308px 330.535px;" class="animable"></path></g><g id="elxlof2tpuj0j"><g style="opacity: 0.2; transform-origin: 156.68px 301.275px;" class="animable"><line x1="104.48" y1="324.35" x2="106.77" y2="323.34" style="fill: none; stroke: rgb(250, 250, 250); stroke-linecap: round; stroke-linejoin: round; transform-origin: 105.625px 323.845px;" id="elph53w2c7yaj" class="animable"></line><line x1="111.52" y1="321.24" x2="204.22" y2="280.26" style="fill: none; stroke: rgb(250, 250, 250); stroke-linecap: round; stroke-linejoin: round; stroke-dasharray: 5.19753, 5.19753; transform-origin: 157.87px 300.75px;" id="elggaytpnr5q" class="animable"></line><line x1="206.6" y1="279.21" x2="208.88" y2="278.2" style="fill: none; stroke: rgb(250, 250, 250); stroke-linecap: round; stroke-linejoin: round; transform-origin: 207.74px 278.705px;" id="el9gkuxpv0k3i" class="animable"></line></g></g><g id="elykzssn13vp"><line x1="228.66" y1="294.63" x2="315.75" y2="289.26" style="fill: none; stroke: rgb(0, 0, 0); stroke-linecap: round; stroke-linejoin: round; stroke-width: 2px; opacity: 0.2; transform-origin: 272.205px 291.945px;" class="animable"></line></g><g id="elbc3zxdvlpbf"><line x1="232.58" y1="315.12" x2="319.67" y2="309.75" style="fill: none; stroke: rgb(0, 0, 0); stroke-linecap: round; stroke-linejoin: round; stroke-width: 2px; opacity: 0.2; transform-origin: 276.125px 312.435px;" class="animable"></line></g></g><g id="freepik--Character--inject-2" class="animable" style="transform-origin: 338.307px 263.775px;"><path d="M300.58,169.56s-2.19,23.33-10.86,25.34a26.16,26.16,0,0,1-16-1.6l-7.05-5.42-3.44,12s3.76,5.11,11.61,1.57c0,0,14,6.16,21.74,0s10.22-23.06,10.22-23.06Z" style="fill: rgb(185, 121, 100); transform-origin: 285.015px 186.874px;" id="eltd45i9n3vbk" class="animable"></path><path d="M307.55,158.26s-6.05-10.31-3.3-29,18.42-21,24.47-19.65,11,7.16,15.12,18.22,5.64,13.94,12.51,12,25.15-8,30.24-2.61a12.64,12.64,0,0,1,3.43,11.4s25.43-6.18,23.23,16.5-38.9,43.85-73.81,21.44S307.55,158.26,307.55,158.26Z" style="fill: rgb(38, 50, 56); transform-origin: 358.459px 152.695px;" id="el2n3x4ynjvd1" class="animable"></path><path d="M307.27,213.15s-6.91,59.43-6.68,87.3S310.72,394,310.72,394h12.21s-1.61-52.52-1.38-70.49S325,275.81,325,275.81s3.91,26.72,8.52,36.16,30.18,42.85,47.92,53.22l8.29-7.61s-18.43-22.8-25.34-34.09S351.27,309,348.73,288s1.85-54.59-5.52-74.86Z" style="fill: rgb(38, 50, 56); transform-origin: 345.157px 303.57px;" id="el77tgkls2jf" class="animable"></path><g id="el4b0rnc7u8qs"><path d="M325,275.81l-5.31-37.67s-4.19,22.64,4.06,50.29Z" style="opacity: 0.2; transform-origin: 321.813px 263.285px;" class="animable"></path></g><polygon points="313.23 397.33 313.64 409 321.83 409.68 322.24 408.59 322.24 396.51 313.23 397.33" style="fill: rgb(185, 121, 100); transform-origin: 317.735px 403.095px;" id="el5ysfdbly1wr" class="animable"></polygon><polygon points="309.34 392.89 310.09 397.26 324.15 397.6 325.04 392.35 309.34 392.89" style="fill: rgb(39, 174, 96); transform-origin: 317.19px 394.975px;" id="eljwbqthx2x9" class="animable"></polygon><polygon points="377.59 366 390.62 353.86 393.49 358.43 382.3 368.67 377.59 366" style="fill: rgb(39, 174, 96); transform-origin: 385.54px 361.265px;" id="elulkhhrqj1kh" class="animable"></polygon><polygon points="383.87 366 392.47 373.24 397.99 366.75 390.93 359.45 383.87 366" style="fill: rgb(185, 121, 100); transform-origin: 390.93px 366.345px;" id="elxdjyow77n3" class="animable"></polygon><path d="M399.66,366.25l5.2,3.2a1.91,1.91,0,0,1,.43,2.89c-3.77,4.26-13.4,15.08-14.36,15.84-1.19,1-2.63-.68-3-2.18,0,0,2.73-3.62,3-5.94a42.48,42.48,0,0,0,0-5.38,1.77,1.77,0,0,1,.42-1.23l5.81-6.82A1.92,1.92,0,0,1,399.66,366.25Z" style="fill: rgb(38, 50, 56); transform-origin: 396.849px 377.215px;" id="ela1ohrog1tma" class="animable"></path><path d="M323.83,410l1.08,6a1.91,1.91,0,0,1-1.87,2.25c-5.69,0-20.17.06-21.38-.14-1.51-.25-1.24-2.41-.35-3.67,0,0,4.51-.38,6.4-1.75a43.19,43.19,0,0,0,4-3.56,1.79,1.79,0,0,1,1.2-.51l8.95-.21A1.93,1.93,0,0,1,323.83,410Z" style="fill: rgb(38, 50, 56); transform-origin: 312.763px 413.334px;" id="elmxfkrk5ah3p" class="animable"></path><path d="M344.52,180.19,357,171.43s-3.32-13.28-8.24-13.94-29.34-5.31-44.87,0c0,0-5.58,1.59-7.3,17.26l6.64,2.12s2.38,29.34,3.85,33.86h35.44S342.92,185.5,344.52,180.19Z" style="fill: rgb(39, 174, 96); transform-origin: 326.795px 182.853px;" id="el9yn1d0798rt" class="animable"></path><path d="M347.21,178.3s4.73,13.5,5.57,20.76c0,0-11.24-4.48-14.14-6.53l-2.2-7.9L329,181,326.79,187,333,194.7s16.93,15.84,25.51,12.22-3.39-34.14-3.39-34.14Z" style="fill: rgb(185, 121, 100); transform-origin: 344.198px 190.119px;" id="elgw113gclqe" class="animable"></path><path d="M315.46,119.19s-4.33,8.64-4,15.67,3.88,9.9,10.63,10.89c0,0,2.88,9-4.68,9.91-.58.07-.78,2.36-.74,2.73.2,1.46,1.65,2.26,3,2.6a20.3,20.3,0,0,0,4.33.48,10.09,10.09,0,0,0,8.07-3.59c.16-.19,1.68-2.13,1.68-2.13s-3.61-1.79-2.34-13.51a9.73,9.73,0,0,0,3.78-4.68,5.88,5.88,0,0,0,2.88-3.52c.54-2.34-1.53-5.58-5.31-2.34,0,0-7.12-3.6-9.82-16.21A12.63,12.63,0,0,1,315.46,119.19Z" style="fill: rgb(185, 121, 100); transform-origin: 324.798px 138.483px;" id="eldhs0jv2ien8" class="animable"></path><path d="M317.49,132.94l.61-4.62-3.27,3.62A3.22,3.22,0,0,0,317.49,132.94Z" style="fill: rgb(162, 78, 63); transform-origin: 316.465px 130.638px;" id="el5zyzavswa5" class="animable"></path><path d="M319.39,136.32s3.45.53,5.11-1.68" style="fill: none; stroke: rgb(34, 34, 33); stroke-linecap: round; stroke-linejoin: round; stroke-width: 0.75px; transform-origin: 321.945px 135.508px;" id="elzx4d3lkeh7s" class="animable"></path><path d="M322.84,121.85a4.52,4.52,0,0,1,4.47,1.19" style="fill: none; stroke: rgb(34, 34, 33); stroke-linecap: round; stroke-linejoin: round; transform-origin: 325.075px 122.359px;" id="el1wrup3wbgh1" class="animable"></path><path d="M316.87,120.85s-2-.31-2.89.82" style="fill: none; stroke: rgb(34, 34, 33); stroke-linecap: round; stroke-linejoin: round; transform-origin: 315.425px 121.241px;" id="el28d2v7sb045" class="animable"></path><path d="M324.23,127.93c-.09.7-.54,1.21-1,1.15s-.77-.67-.68-1.37.54-1.21,1-1.15S324.32,127.23,324.23,127.93Z" style="fill: rgb(34, 34, 33); transform-origin: 323.39px 127.82px;" id="elt2i3gnt8sye" class="animable"></path><g id="elaz8z9c6s02g"><ellipse cx="315.43" cy="126.29" rx="1.27" ry="0.85" style="fill: rgb(34, 34, 33); transform-origin: 315.43px 126.29px; transform: rotate(-82.6deg);" class="animable"></ellipse></g><path d="M323.56,126.56l-1.58-.69A1,1,0,0,0,323.56,126.56Z" style="fill: rgb(34, 34, 33); transform-origin: 322.77px 126.31px;" id="elckhhkxkf5mc" class="animable"></path><path d="M315.72,125.08l-1.58-.69A1,1,0,0,0,315.72,125.08Z" style="fill: rgb(34, 34, 33); transform-origin: 314.93px 124.83px;" id="elkvkdvz0auxn" class="animable"></path><polygon points="305.84 209.17 305.84 213.34 344.24 213.66 343.21 208.7 305.84 209.17" style="fill: rgb(39, 174, 96); transform-origin: 325.04px 211.18px;" id="el8foop5ty6n2" class="animable"></polygon><g id="el02zspp23err"><polygon points="305.84 209.17 305.84 213.34 344.24 213.66 343.21 208.7 305.84 209.17" style="fill: rgb(255, 255, 255); opacity: 0.4; transform-origin: 325.04px 211.18px;" class="animable"></polygon></g></g><g id="freepik--Card--inject-2" class="animable" style="transform-origin: 263.27px 216.322px;"><path d="M306.31,188.93l-21.12,73.46a12.8,12.8,0,0,1-11,9.22,13.06,13.06,0,0,1-4.82-.44L229,259.56a12.83,12.83,0,0,1-8.78-15.85l21.13-73.48a12.82,12.82,0,0,1,15.84-8.76l40.4,11.6A12.82,12.82,0,0,1,306.31,188.93Z" style="fill: rgb(39, 174, 96); transform-origin: 263.27px 216.322px;" id="el1qvpcv8s4le" class="animable"></path><g id="elfjnfxno9zb9"><path d="M306.31,188.93l-21.12,73.46a12.8,12.8,0,0,1-11,9.22,13.06,13.06,0,0,1-4.82-.44L229,259.56a12.83,12.83,0,0,1-8.78-15.85l21.13-73.48a12.82,12.82,0,0,1,15.84-8.76l40.4,11.6A12.82,12.82,0,0,1,306.31,188.93Z" style="opacity: 0.2; transform-origin: 263.27px 216.322px;" class="animable"></path></g><path d="M302.8,189.8l-21.12,73.47a12.77,12.77,0,0,1-7.51,8.34,13.06,13.06,0,0,1-4.82-.44L229,259.56a12.83,12.83,0,0,1-8.78-15.85l21.13-73.48a12.74,12.74,0,0,1,7.51-8.32,12.65,12.65,0,0,1,4.82.44L294,174A12.82,12.82,0,0,1,302.8,189.8Z" style="fill: rgb(39, 174, 96); transform-origin: 261.504px 216.757px;" id="eljdac10i5qbc" class="animable"></path><g id="el0j71fr3kpbgo"><path d="M302.8,189.8l-21.12,73.47a12.77,12.77,0,0,1-7.51,8.34,13.06,13.06,0,0,1-4.82-.44L229,259.56a12.83,12.83,0,0,1-8.78-15.85l21.13-73.48a12.74,12.74,0,0,1,7.51-8.32,12.65,12.65,0,0,1,4.82.44L294,174A12.82,12.82,0,0,1,302.8,189.8Z" style="fill: rgb(250, 250, 250); opacity: 0.5; transform-origin: 261.504px 216.757px;" class="animable"></path></g><g id="elw098khdlaq"><rect x="233.85" y="194.35" width="4.49" height="57.34" style="fill: rgb(250, 250, 250); transform-origin: 236.095px 223.02px; transform: rotate(15.74deg);" class="animable"></rect></g><polygon points="236.67 252.99 232.35 251.74 247.9 196.57 252.21 197.81 236.67 252.99" style="fill: rgb(250, 250, 250); transform-origin: 242.28px 224.78px;" id="el9oyx108mx9" class="animable"></polygon><polygon points="242.95 254.79 238.63 253.55 254.18 198.38 258.5 199.62 242.95 254.79" style="fill: rgb(250, 250, 250); transform-origin: 248.565px 226.585px;" id="elm9st243bcll" class="animable"></polygon><g id="el6thufjcab9d"><rect x="271.48" y="205.16" width="4.49" height="57.34" style="opacity: 0.5; transform-origin: 273.725px 233.83px; transform: rotate(15.74deg);" class="animable"></rect></g><path d="M283.1,191.25,281,198.74l-2.56-.72a4.87,4.87,0,0,1-3.36-6l1.4-5,5.17,1.48A2.2,2.2,0,0,1,283.1,191.25Z" style="fill: rgb(250, 250, 250); transform-origin: 279.049px 192.88px;" id="elolgsift5idl" class="animable"></path><path d="M281.87,187.58l-5.17-1.48,1.55-5.48a4.86,4.86,0,0,1,6-3.36l2.66.75-2.32,8.07A2.17,2.17,0,0,1,281.87,187.58Z" style="fill: rgb(250, 250, 250); transform-origin: 281.805px 182.375px;" id="el4vbb0b3qi64" class="animable"></path><path d="M286.77,190l5.2,1.49-1.38,4.89a4.84,4.84,0,0,1-6,3.36l-2.7-.76,2.15-7.48A2.19,2.19,0,0,1,286.77,190Z" style="fill: rgb(250, 250, 250); transform-origin: 286.93px 194.919px;" id="el2j7l8ywb5x9" class="animable"></path><path d="M293.81,185l-1.57,5.56-5.2-1.49a2.2,2.2,0,0,1-1.5-2.71l2.32-8.07,2.59.73A4.85,4.85,0,0,1,293.81,185Z" style="fill: rgb(250, 250, 250); transform-origin: 289.724px 184.425px;" id="elrx112k79p3" class="animable"></path></g><defs>     <filter id="active" height="200%">         <feMorphology in="SourceAlpha" result="DILATED" operator="dilate" radius="2"></feMorphology>                <feFlood flood-color="#32DFEC" flood-opacity="1" result="PINK"></feFlood>        <feComposite in="PINK" in2="DILATED" operator="in" result="OUTLINE"></feComposite>        <feMerge>            <feMergeNode in="OUTLINE"></feMergeNode>            <feMergeNode in="SourceGraphic"></feMergeNode>        </feMerge>    </filter>    <filter id="hover" height="200%">        <feMorphology in="SourceAlpha" result="DILATED" operator="dilate" radius="2"></feMorphology>                <feFlood flood-color="#ff0000" flood-opacity="0.5" result="PINK"></feFlood>        <feComposite in="PINK" in2="DILATED" operator="in" result="OUTLINE"></feComposite>        <feMerge>            <feMergeNode in="OUTLINE"></feMergeNode>            <feMergeNode in="SourceGraphic"></feMergeNode>        </feMerge>            <feColorMatrix type="matrix" values="0   0   0   0   0                0   1   0   0   0                0   0   0   0   0                0   0   0   1   0 "></feColorMatrix>    </filter></defs>
</svg>