<svg class="animated" id="freepik_stories-browser-stats" xmlns="http://www.w3.org/2000/svg" viewBox="0 0 500 500" version="1.1" xmlns:xlink="http://www.w3.org/1999/xlink" xmlns:svgjs="http://svgjs.com/svgjs">
  <style>svg#freepik_stories-browser-stats:not(.animated) .animable {opacity: 0;}svg#freepik_stories-browser-stats.animated #freepik--Graphics--inject-5 {animation: 1s 1 forwards ease-in fadeIn,1.5s Infinite  linear floating;animation-delay: 0s,1s;}svg#freepik_stories-browser-stats.animated #freepik--Character--inject-5 {animation: 1s 1 forwards cubic-bezier(.36,-0.01,.5,1.38) slideLeft;animation-delay: 0s;}            @keyframes fadeIn {                0% {                    opacity: 0;                }                100% {                    opacity: 1;                }            }                    @keyframes floating {                0% {                    opacity: 1;                    transform: translateY(0px);                }                50% {                    transform: translateY(-10px);                }                100% {                    opacity: 1;                    transform: translateY(0px);                }            }                    @keyframes slideLeft {                0% {                    opacity: 0;                    transform: translateX(-30px);                }                100% {                    opacity: 1;                    transform: translateX(0);                }            }        </style><g id="freepik--background-simple--inject-5" class="animable" style="transform-origin: 249.685px 209.635px;"><path d="M368.33,57.44C269.49,26.29,129.12,66.54,65,149.29c-67.7,87.37,2.52,191.07,98.32,216.14C253.65,389.08,363,350,420.64,279.56,485.79,200,475.55,91.24,368.33,57.44Z" style="fill: rgb(39, 174, 96); transform-origin: 249.685px 209.635px;" id="elr5q4zxp8o6" class="animable"></path><g id="elq39jle1telq"><path d="M368.33,57.44C269.49,26.29,129.12,66.54,65,149.29c-67.7,87.37,2.52,191.07,98.32,216.14C253.65,389.08,363,350,420.64,279.56,485.79,200,475.55,91.24,368.33,57.44Z" style="fill: rgb(255, 255, 255); opacity: 0.9; transform-origin: 249.685px 209.635px;" class="animable"></path></g></g><g id="freepik--Shadow--inject-5" class="animable" style="transform-origin: 250px 416.24px;"><ellipse cx="250" cy="416.24" rx="193.89" ry="11.32" style="fill: rgb(245, 245, 245); transform-origin: 250px 416.24px;" id="elnscfb2th10i" class="animable"></ellipse></g><g id="freepik--Graphics--inject-5" class="animable animator-active" style="transform-origin: 249.994px 209.335px;"><path d="M429.39,80H70.62A9.65,9.65,0,0,0,61,89.6V329.06a9.64,9.64,0,0,0,9.62,9.61H429.39a9.64,9.64,0,0,0,9.61-9.61V89.6A9.65,9.65,0,0,0,429.39,80Z" style="fill: rgb(39, 174, 96); transform-origin: 250px 209.335px;" id="elglylc4bpho" class="animable"></path><g id="el8y8b6tjy0tv"><path d="M429.39,80H70.62A9.65,9.65,0,0,0,61,89.6V329.06a9.64,9.64,0,0,0,9.62,9.61H429.39a9.64,9.64,0,0,0,9.61-9.61V89.6A9.65,9.65,0,0,0,429.39,80Z" style="fill: rgb(245, 245, 245); opacity: 0.3; transform-origin: 250px 209.335px;" class="animable"></path></g><path d="M134.15,98.79H79.8a6.26,6.26,0,1,1,0-12.51h54.35a6.26,6.26,0,1,1,0,12.51ZM79.8,87.28a5.26,5.26,0,1,0,0,10.51h54.35a5.26,5.26,0,1,0,0-10.51Z" style="fill: rgb(250, 250, 250); transform-origin: 106.975px 92.535px;" id="eltybdq778bmg" class="animable"></path><path d="M160.47,98.79H154a6.26,6.26,0,0,1,0-12.51h6.5a6.26,6.26,0,0,1,0,12.51ZM154,87.28a5.26,5.26,0,0,0,0,10.51h6.5a5.26,5.26,0,0,0,0-10.51Z" style="fill: rgb(250, 250, 250); transform-origin: 157.25px 92.535px;" id="elzsqx7qsrn6e" class="animable"></path><rect x="61" y="104.85" width="378" height="215.58" style="fill: rgb(39, 174, 96); transform-origin: 250px 212.64px;" id="elbnfle47amvm" class="animable"></rect><g id="elvv3mesvqfa"><rect x="61" y="104.85" width="378" height="215.58" style="fill: rgb(245, 245, 245); opacity: 0.8; transform-origin: 250px 212.64px;" class="animable"></rect></g><g id="el8tnafb2uo5r"><path d="M131.24,288.19a108.17,108.17,0,0,1-12.57-.71c-24-2.75-45.1-14.19-57.87-31.38a.25.25,0,1,1,.4-.3c12.68,17.08,33.65,28.45,57.52,31.19,19.09,2.19,39.58-.68,64.48-9,7.36-2.47,14.81-5.28,22-8,23.07-8.73,46.92-17.76,72-16.77,12,.47,24,3.26,35.6,6,5.72,1.33,11.63,2.7,17.47,3.78,22.09,4.09,39.07,2.41,51.91-5.13a92.94,92.94,0,0,0,10.31-7.39c4.55-3.57,9.24-7.27,14.63-9.58a35.35,35.35,0,0,1,32,2.65.24.24,0,0,1,.08.34.24.24,0,0,1-.34.08,34.87,34.87,0,0,0-31.56-2.61c-5.32,2.28-10,6-14.51,9.52a95.6,95.6,0,0,1-10.36,7.43c-12.95,7.6-30.05,9.29-52.26,5.18-5.85-1.08-11.77-2.46-17.49-3.79-11.58-2.69-23.56-5.48-35.51-5.94-24.94-1-48.76,8-71.79,16.74-7.21,2.73-14.67,5.55-22,8C163.75,285,146.86,288.19,131.24,288.19Z" style="fill: rgb(250, 250, 250); opacity: 0.9; transform-origin: 249.995px 263.226px;" class="animable"></path></g><path d="M376.69,203.15c-17.85,0-37.09-4.41-60.06-13.74-7.37-3-14.83-6.34-22-9.58-23-10.36-46.85-21.07-71.79-21.87-12-.38-23.92,1.55-35.5,3.42-5.73.92-11.65,1.88-17.5,2.54-22.21,2.53-39.3-.39-52.25-8.91a105,105,0,0,1-10.36-8.16C102.67,143,98,139,92.67,136.29a34.49,34.49,0,0,0-31.55.36.26.26,0,0,1-.34-.1.25.25,0,0,1,.1-.34,35.07,35.07,0,0,1,32-.37c5.38,2.69,10.08,6.72,14.62,10.63a103.66,103.66,0,0,0,10.31,8.12c12.84,8.46,29.83,11.35,51.92,8.83,5.84-.66,11.75-1.61,17.47-2.54,11.6-1.87,23.6-3.8,35.59-3.42,25.05.81,48.91,11.53,72,21.91,7.21,3.24,14.66,6.59,22,9.58,24.9,10.11,45.37,14.43,64.48,13.6,23.86-1,44.82-10.9,57.5-27.07a.24.24,0,0,1,.35,0,.25.25,0,0,1,.05.35c-12.77,16.28-33.87,26.22-57.88,27.26C379.79,203.12,378.24,203.15,376.69,203.15Z" style="fill: rgb(39, 174, 96); mix-blend-mode: multiply; transform-origin: 249.985px 167.655px;" id="el83jcj0cnyrg" class="animable"></path><g id="elbf4wmxe315v"><path d="M376.69,203.15c-17.85,0-37.09-4.41-60.06-13.74-7.37-3-14.83-6.34-22-9.58-23-10.36-46.85-21.07-71.79-21.87-12-.38-23.92,1.55-35.5,3.42-5.73.92-11.65,1.88-17.5,2.54-22.21,2.53-39.3-.39-52.25-8.91a105,105,0,0,1-10.36-8.16C102.67,143,98,139,92.67,136.29a34.49,34.49,0,0,0-31.55.36.26.26,0,0,1-.34-.1.25.25,0,0,1,.1-.34,35.07,35.07,0,0,1,32-.37c5.38,2.69,10.08,6.72,14.62,10.63a103.66,103.66,0,0,0,10.31,8.12c12.84,8.46,29.83,11.35,51.92,8.83,5.84-.66,11.75-1.61,17.47-2.54,11.6-1.87,23.6-3.8,35.59-3.42,25.05.81,48.91,11.53,72,21.91,7.21,3.24,14.66,6.59,22,9.58,24.9,10.11,45.37,14.43,64.48,13.6,23.86-1,44.82-10.9,57.5-27.07a.24.24,0,0,1,.35,0,.25.25,0,0,1,.05.35c-12.77,16.28-33.87,26.22-57.88,27.26C379.79,203.12,378.24,203.15,376.69,203.15Z" style="fill: rgb(245, 245, 245); opacity: 0.7; transform-origin: 249.985px 167.655px;" class="animable"></path></g><path d="M409.47,313.69H90.53a22.81,22.81,0,0,1-22.78-22.78V134.38A22.81,22.81,0,0,1,90.53,111.6H409.47a22.81,22.81,0,0,1,22.78,22.78V290.91A22.81,22.81,0,0,1,409.47,313.69ZM90.53,112.1a22.31,22.31,0,0,0-22.28,22.28V290.91a22.31,22.31,0,0,0,22.28,22.28H409.47a22.31,22.31,0,0,0,22.28-22.28V134.38a22.31,22.31,0,0,0-22.28-22.28Z" style="fill: rgb(250, 250, 250); transform-origin: 250px 212.645px;" id="eljjy1r71kjy" class="animable"></path><rect x="88.83" y="237.51" width="18.57" height="82.93" style="fill: rgb(250, 250, 250); transform-origin: 98.115px 278.975px;" id="el15tfhne5r67" class="animable"></rect><rect x="116.45" y="220.58" width="18.57" height="99.85" style="fill: rgb(250, 250, 250); transform-origin: 125.735px 270.505px;" id="eluozinr7jp39" class="animable"></rect><rect x="144.06" y="203.96" width="18.57" height="116.48" style="fill: rgb(250, 250, 250); transform-origin: 153.345px 262.2px;" id="el9xj2bs2xx5w" class="animable"></rect><rect x="171.68" y="183.58" width="18.57" height="136.85" style="fill: rgb(250, 250, 250); transform-origin: 180.965px 252.005px;" id="elvzz46aey7he" class="animable"></rect><rect x="199.29" y="212.64" width="18.57" height="107.79" style="fill: rgb(250, 250, 250); transform-origin: 208.575px 266.535px;" id="elfdil8w8ao1d" class="animable"></rect><rect x="226.91" y="172.25" width="18.57" height="148.19" style="fill: rgb(39, 174, 96); transform-origin: 236.195px 246.345px;" id="elx3qevc4lxig" class="animable"></rect><g id="el2dg7mfe9nvw"><rect x="226.91" y="172.25" width="18.57" height="148.19" style="fill: rgb(255, 255, 255); opacity: 0.2; transform-origin: 236.195px 246.345px;" class="animable"></rect></g><path d="M238.9,179.9A16.47,16.47,0,0,1,223,190.74v-24.6h14.78A16.44,16.44,0,0,1,238.9,179.9Z" style="fill: rgb(39, 174, 96); transform-origin: 231.454px 178.443px;" id="elnfeh3idzm8f" class="animable"></path><g id="elgw18jivjw2"><path d="M238.9,179.9A16.47,16.47,0,0,1,223,190.74v-24.6h14.78A16.44,16.44,0,0,1,238.9,179.9Z" style="fill: rgb(255, 255, 255); opacity: 0.2; transform-origin: 231.454px 178.443px;" class="animable"></path></g><rect x="254.52" y="222.69" width="18.57" height="97.74" style="fill: rgb(250, 250, 250); transform-origin: 263.805px 271.56px;" id="el97221giytgp" class="animable"></rect><rect x="282.14" y="189.91" width="18.57" height="130.53" style="fill: rgb(250, 250, 250); transform-origin: 291.425px 255.175px;" id="elc6t6wqypzyo" class="animable"></rect><rect x="309.75" y="287.78" width="18.57" height="32.65" style="fill: rgb(39, 174, 96); transform-origin: 319.035px 304.105px;" id="el37s38n9ix7g" class="animable"></rect><g id="el4v0qpjyhww2"><rect x="309.75" y="287.78" width="18.57" height="32.65" style="opacity: 0.3; transform-origin: 319.035px 304.105px;" class="animable"></rect></g><rect x="337.37" y="181.71" width="18.57" height="138.73" style="fill: rgb(250, 250, 250); transform-origin: 346.655px 251.075px;" id="elpgg53l478pi" class="animable"></rect><rect x="364.98" y="143.25" width="18.57" height="177.19" style="fill: rgb(39, 174, 96); transform-origin: 374.265px 231.845px;" id="elm2ug9958jzh" class="animable"></rect><g id="el7uw14s9kfry"><rect x="364.98" y="143.25" width="18.57" height="177.19" style="fill: rgb(255, 255, 255); opacity: 0.2; transform-origin: 374.265px 231.845px;" class="animable"></rect></g><rect x="392.6" y="225.35" width="18.57" height="95.08" style="fill: rgb(250, 250, 250); transform-origin: 401.885px 272.89px;" id="el6z6hh8bdb08" class="animable"></rect></g><g id="freepik--Character--inject-5" class="animable" style="transform-origin: 186.182px 273.583px;"><g id="elqgzok5gq2wq"><path d="M238.9,179.9A16.47,16.47,0,0,1,223,190.74a16.24,16.24,0,0,1-5.22-1,16.49,16.49,0,1,1,21.14-9.85Z" style="fill: rgb(250, 250, 250); opacity: 0.3; transform-origin: 223.426px 174.251px;" class="animable"></path></g><g id="elxom66wiampp"><path d="M236.35,164l-29.1,13.56c-.05-.25-.1-.49-.14-.74a16.34,16.34,0,0,1-.05-4.84h0l25.13-11.71A16.34,16.34,0,0,1,236.35,164Z" style="fill: rgb(250, 250, 250); opacity: 0.4; transform-origin: 221.627px 168.915px;" class="animable"></path></g><g id="el2qwf0kgajxn"><path d="M239.9,173.93l-27.36,12.74a16.36,16.36,0,0,1-4.36-6.07l29.87-13.92A16.48,16.48,0,0,1,239.9,173.93Z" style="fill: rgb(250, 250, 250); opacity: 0.4; transform-origin: 224.04px 176.675px;" class="animable"></path></g><path d="M229.91,156.38a19,19,0,1,0,11.37,24.39A19,19,0,0,0,229.91,156.38Zm-11.64,32a15,15,0,1,1,19.24-9A15,15,0,0,1,218.27,188.36Z" style="fill: rgb(39, 174, 96); transform-origin: 223.436px 174.243px;" id="elha5uc5nuaf" class="animable"></path><g id="elihajnrwqbja"><path d="M229.91,156.38a19,19,0,1,0,11.37,24.39A19,19,0,0,0,229.91,156.38Zm-11.64,32a15,15,0,1,1,19.24-9A15,15,0,0,1,218.27,188.36Z" style="opacity: 0.3; transform-origin: 223.436px 174.243px;" class="animable"></path></g><path d="M219.45,190.65c-.95,4.59-2.27,9.06-3.64,13.5-.73,2.21-1.41,4.43-2.2,6.61l-1.16,3.29a4.26,4.26,0,0,1-2.54,2.78,2.77,2.77,0,0,1-3.56-1.3,4.25,4.25,0,0,1-.16-3.76l1.23-3.26c.8-2.18,1.71-4.32,2.57-6.48,1.8-4.29,3.67-8.55,5.9-12.68a1.91,1.91,0,0,1,3.56,1.3Z" style="fill: rgb(39, 174, 96); transform-origin: 212.663px 202.683px;" id="elkhizjnsbcu" class="animable"></path><g id="el05axd8mpzwug"><path d="M219.45,190.65c-.95,4.59-2.27,9.06-3.64,13.5-.73,2.21-1.41,4.43-2.2,6.61l-1.16,3.29a4.26,4.26,0,0,1-2.54,2.78,2.77,2.77,0,0,1-3.56-1.3,4.25,4.25,0,0,1-.16-3.76l1.23-3.26c.8-2.18,1.71-4.32,2.57-6.48,1.8-4.29,3.67-8.55,5.9-12.68a1.91,1.91,0,0,1,3.56,1.3Z" style="opacity: 0.3; transform-origin: 212.663px 202.683px;" class="animable"></path></g><path d="M145.54,186.28c-.18.25-.47.69-.7,1.05l-.75,1.17c-.49.79-1,1.6-1.4,2.43a51.49,51.49,0,0,0-2.43,5,33.92,33.92,0,0,0-2.6,10.43l0,.67,0,.14c0,.09.18.38.69.67a13.15,13.15,0,0,0,4.59,1.24,65.43,65.43,0,0,0,11.56.1l.87,4.15a46.31,46.31,0,0,1-12.74,2.23,28,28,0,0,1-3.49-.19,14.36,14.36,0,0,1-3.83-1,9,9,0,0,1-4-3.13,8,8,0,0,1-1.15-2.68,10.57,10.57,0,0,1-.23-2.37,36.36,36.36,0,0,1,2.5-13.35,48.36,48.36,0,0,1,2.72-6.05c.52-1,1.08-1.92,1.66-2.86.29-.47.59-.94.91-1.4s.61-.89,1-1.45Z" style="fill: rgb(228, 137, 123); transform-origin: 142.649px 198.32px;" id="el9ewhjppowoa" class="animable"></path><path d="M142.55,172.37c-3.46.84-11.64,14.48-11.64,14.48l18.33,7.59s3.31-10.38,1.23-14.53C148.31,175.59,147.22,171.22,142.55,172.37Z" style="fill: rgb(39, 174, 96); transform-origin: 141.033px 183.312px;" id="el7l2onieoy1k" class="animable"></path><g id="elky4wx5f7mhf"><path d="M142.55,172.37c-3.46.84-11.64,14.48-11.64,14.48l18.33,7.59s3.31-10.38,1.23-14.53C148.31,175.59,147.22,171.22,142.55,172.37Z" style="opacity: 0.2; transform-origin: 141.033px 183.312px;" class="animable"></path></g><path d="M155.27,208.75l8.4-.89L159,214.92s-5.36-.49-6.73-3.7Z" style="fill: rgb(228, 137, 123); transform-origin: 157.97px 211.39px;" id="ellt5mj3mtdxh" class="animable"></path><polygon points="169.66 211.6 163.21 218.61 158.95 214.92 163.67 207.86 169.66 211.6" style="fill: rgb(228, 137, 123); transform-origin: 164.305px 213.235px;" id="elo8lynaavz4" class="animable"></polygon><path d="M144.22,412.22a10.27,10.27,0,0,1-2.22-.3.19.19,0,0,1-.14-.16.2.2,0,0,1,.08-.2c.29-.19,2.81-1.83,3.8-1.39a.69.69,0,0,1,.4.56,1.16,1.16,0,0,1-.33,1.06A2.41,2.41,0,0,1,144.22,412.22Zm-1.65-.58c1.46.29,2.55.24,3-.15a.72.72,0,0,0,.2-.7.28.28,0,0,0-.17-.26C145.06,410.31,143.6,411,142.57,411.64Z" style="fill: rgb(39, 174, 96); transform-origin: 144.009px 411.162px;" id="ele0jhkh1fg6e" class="animable"></path><path d="M142.05,411.93a.21.21,0,0,1-.2-.2c0-.1,0-2.51.9-3.32a1,1,0,0,1,.84-.27.69.69,0,0,1,.67.56c.19.94-1.32,2.75-2.11,3.2A.19.19,0,0,1,142.05,411.93Zm1.4-3.4a.61.61,0,0,0-.43.18,4.49,4.49,0,0,0-.76,2.63c.79-.63,1.73-2,1.61-2.56,0-.1-.07-.21-.33-.24Z" style="fill: rgb(39, 174, 96); transform-origin: 143.063px 410.03px;" id="elfgggbd580h4" class="animable"></path><path d="M182.32,412.22a14.55,14.55,0,0,1-2.64-.3.18.18,0,0,1-.15-.16.19.19,0,0,1,.1-.21c.38-.19,3.7-1.9,4.73-1.34a.64.64,0,0,1,.34.53,1.1,1.1,0,0,1-.35,1A3.17,3.17,0,0,1,182.32,412.22Zm-2-.58c1.86.31,3.24.23,3.75-.23a.74.74,0,0,0,.22-.63.25.25,0,0,0-.14-.22C183.61,410.26,181.71,411,180.34,411.64Z" style="fill: rgb(39, 174, 96); transform-origin: 182.12px 411.167px;" id="elzeo07i8xurq" class="animable"></path><path d="M179.72,411.93a.15.15,0,0,1-.11,0,.21.21,0,0,1-.09-.18c0-.09.19-2.35,1.24-3.22a1.44,1.44,0,0,1,1.1-.35c.55.06.71.34.74.57.16,1-1.78,2.74-2.8,3.2Zm2-3.4a1.06,1.06,0,0,0-.69.26,4.69,4.69,0,0,0-1,2.59c1-.62,2.35-2,2.25-2.61,0,0,0-.2-.39-.23Z" style="fill: rgb(39, 174, 96); transform-origin: 181.065px 410.061px;" id="ely6vuapu9i4" class="animable"></path><path d="M157.16,152.11c1,5,3.28,15-.18,18.35,0,0,1.39,5,10.63,5,10.15,0,4.82-5,4.82-5-5.55-1.32-5.44-5.43-4.49-9.29Z" style="fill: rgb(228, 137, 123); transform-origin: 165.404px 163.785px;" id="elfufxixpiaqp" class="animable"></path><path d="M178.12,143.26a.42.42,0,0,1-.29-.12.4.4,0,0,1,0-.56,4,4,0,0,1,3.45-1.07.39.39,0,0,1,.29.48.39.39,0,0,1-.47.3,3.1,3.1,0,0,0-2.73.86A.35.35,0,0,1,178.12,143.26Z" style="fill: rgb(38, 50, 56); transform-origin: 179.649px 142.357px;" id="elc9zcf8yl8wk" class="animable"></path><path d="M179.34,148.37a18,18,0,0,0,1.38,4.76,2.88,2.88,0,0,1-2.45-.12Z" style="fill: rgb(222, 87, 83); transform-origin: 179.495px 150.859px;" id="elby3uw0653l" class="animable"></path><path d="M179,147.1c-.15.66.08,1.28.51,1.38s.9-.35,1-1-.07-1.27-.5-1.38S179.16,146.44,179,147.1Z" style="fill: rgb(38, 50, 56); transform-origin: 179.746px 147.289px;" id="eljh6ogzy8dv" class="animable"></path><path d="M179.87,146.08l1.68-.08S180.46,147.05,179.87,146.08Z" style="fill: rgb(38, 50, 56); transform-origin: 180.71px 146.246px;" id="el82fk436r2we" class="animable"></path><polygon points="170.51 411.73 178.89 411.73 179.32 392.33 170.94 392.33 170.51 411.73" style="fill: rgb(228, 137, 123); transform-origin: 174.915px 402.03px;" id="elpp8lg9ie1w" class="animable"></polygon><polygon points="132.45 411.73 140.83 411.73 143.4 392.33 135.02 392.33 132.45 411.73" style="fill: rgb(228, 137, 123); transform-origin: 137.925px 402.03px;" id="elu5w3jrb3wi8" class="animable"></polygon><path d="M141.34,410.76h-9.41a.65.65,0,0,0-.66.57l-1,7.45a1.37,1.37,0,0,0,1.36,1.49c3.28-.06,4.86-.25,9-.25,2.54,0,6.26.26,9.78.26s3.68-3.48,2.21-3.79c-6.57-1.41-7.62-3.36-9.84-5.22A2.24,2.24,0,0,0,141.34,410.76Z" style="fill: rgb(38, 50, 56); transform-origin: 141.88px 415.52px;" id="elkn36kzdhlyh" class="animable"></path><path d="M179.17,410.76h-9.41a.67.67,0,0,0-.67.57l-1,7.45a1.35,1.35,0,0,0,1.35,1.49c3.28-.06,4.86-.25,9-.25,2.55,0,7.82.26,11.33.26s3.68-3.48,2.22-3.79c-6.58-1.41-9.17-3.36-11.4-5.22A2.21,2.21,0,0,0,179.17,410.76Z" style="fill: rgb(38, 50, 56); transform-origin: 180.469px 415.52px;" id="elqietvuw2i8a" class="animable"></path><polygon points="179.32 392.34 179.1 402.33 170.72 402.33 170.94 392.34 179.32 392.34" style="fill: rgb(206, 111, 100); transform-origin: 175.02px 397.335px;" id="elg87sfs8wt6" class="animable"></polygon><polygon points="135.02 392.34 143.4 392.34 142.07 402.33 133.69 402.33 135.02 392.34" style="fill: rgb(206, 111, 100); transform-origin: 138.545px 397.335px;" id="elg7uv6s48pmt" class="animable"></polygon><path d="M186.6,172.61s4,1.41-3.67,50.55h-34c.48-13.84.44-22.38-6.36-50.79A100.84,100.84,0,0,1,157,170.46a110.52,110.52,0,0,1,15.45,0C179.07,171.07,186.6,172.61,186.6,172.61Z" style="fill: rgb(39, 174, 96); transform-origin: 165.106px 196.675px;" id="el3uakywltybf" class="animable"></path><g id="eldpx5l37c7c"><path d="M186.6,172.61s4,1.41-3.67,50.55h-34c.48-13.84.44-22.38-6.36-50.79A100.84,100.84,0,0,1,157,170.46a110.52,110.52,0,0,1,15.45,0C179.07,171.07,186.6,172.61,186.6,172.61Z" style="opacity: 0.2; transform-origin: 165.106px 196.675px;" class="animable"></path></g><path d="M189.35,181.93c.73,4.29,1.68,8.78,2.75,13.06.55,2.15,1.17,4.27,1.86,6.33a45.18,45.18,0,0,0,2.35,5.89,21.06,21.06,0,0,0,1.43,2.54c.25.39.51.72.77,1.06a4.26,4.26,0,0,0,.51.56,1.36,1.36,0,0,0,.9.39,4.43,4.43,0,0,0,1.92-.47,20.18,20.18,0,0,0,4.84-3.39c.78-.72,1.57-1.48,2.34-2.26s1.53-1.64,2.22-2.41l3.58,2.27a33.39,33.39,0,0,1-1.82,3.23,32.26,32.26,0,0,1-2.11,3,23,23,0,0,1-5.75,5.47,11,11,0,0,1-4.59,1.72,8.79,8.79,0,0,1-5.7-1.25,11.28,11.28,0,0,1-2.09-1.72,20.8,20.8,0,0,1-1.38-1.65A28.71,28.71,0,0,1,189.2,211a65.47,65.47,0,0,1-5.33-13.75c-.64-2.31-1.24-4.62-1.72-7s-.93-4.63-1.28-7.09Z" style="fill: rgb(228, 137, 123); transform-origin: 197.845px 200.458px;" id="elwqpkv9ywr6l" class="animable"></path><path d="M186.6,172.61c3.46.88,6,15.09,6,15.09l-13.26,9.05s-5.43-16.92-2.8-20.71C179.25,172.08,181.56,171.33,186.6,172.61Z" style="fill: rgb(39, 174, 96); transform-origin: 184.21px 184.394px;" id="elli42k1q35pc" class="animable"></path><g id="elj19x2vmk3cp"><path d="M186.6,172.61c3.46.88,6,15.09,6,15.09l-13.26,9.05s-5.43-16.92-2.8-20.71C179.25,172.08,181.56,171.33,186.6,172.61Z" style="opacity: 0.2; transform-origin: 184.21px 184.394px;" class="animable"></path></g><path d="M214.35,206.15l4.54-6.48L211,199.5s-1.86,3.75-.6,7Z" style="fill: rgb(228, 137, 123); transform-origin: 214.426px 203px;" id="eleh07gp00l4p" class="animable"></path><path d="M219.6,196.29l-.24-.63a.93.93,0,0,0-1.45-.39l-2.23,1.78a2,2,0,0,1-2.32.14h0l-.69-.78a.72.72,0,0,0-1.11,0l-.17.2a3,3,0,0,0-.66,1.54l-.39,3.26,1.66-1.31,6.9-.45.64-1.38A2.53,2.53,0,0,0,219.6,196.29Z" style="fill: rgb(228, 137, 123); transform-origin: 215.056px 198.237px;" id="elh1jz641zbp" class="animable"></path><path d="M157.43,139.6c-1.37,8.21-2.12,11.65,1,16.77,4.7,7.69,15.06,7.64,18.84,0,3.41-6.85,5.07-19.12-2.09-24.21A11.27,11.27,0,0,0,157.43,139.6Z" style="fill: rgb(228, 137, 123); transform-origin: 168.218px 146.069px;" id="elv8eyjhsbgqf" class="animable"></path><path d="M179.36,185.75c8,9.82-7,22.11-25.69,18.21-26.76-5.6-4-17.21-12.89-25.63s-1.08-13.66,4.33-19.91,5.82-6.44,5.42-18.42,13.07-15,23.16-11.58c7.34,2.5,4,13.88-.27,19.73s7.4,9.43,6.63,17.43S171.85,176.58,179.36,185.75Z" style="fill: rgb(38, 50, 56); transform-origin: 159.155px 165.901px;" id="elwzjl4lem7if" class="animable"></path><path d="M167.21,127.16c8.58-.91,14.31.19,15,7.31s-9.86,11.28-9.86,11.28Z" style="fill: rgb(38, 50, 56); transform-origin: 174.726px 136.318px;" id="ell1yanabnhho" class="animable"></path><path d="M170.82,146.76a6.16,6.16,0,0,0,1.25,4.49c1.33,1.67,3.23.79,3.9-1.11.61-1.71.64-4.65-1.19-5.64A2.72,2.72,0,0,0,170.82,146.76Z" style="fill: rgb(228, 137, 123); transform-origin: 173.561px 148.166px;" id="elm23vqxhpcyn" class="animable"></path><path d="M173.94,223.17s-1.88,17.26-4.38,38.15c-1.6,13.33-3.45,28.14-5.23,40.89-.44,3.23-.89,6.32-1.32,9.23-3.9,26.17-18.93,89-18.93,89H132.66s6.38-60.69,8.28-86.58c4.81-65.49-2.83-75.47,8-90.65Z" style="fill: rgb(38, 50, 56); transform-origin: 153.3px 311.805px;" id="el1nwhyow8rtt" class="animable"></path><polygon points="145.96 400.59 130.78 400.59 131.04 395.19 147.21 394.78 145.96 400.59" style="fill: rgb(39, 174, 96); transform-origin: 138.995px 397.685px;" id="elgbsldfdidqo" class="animable"></polygon><g id="elu23jv8a6ucl"><polygon points="145.96 400.59 130.78 400.59 131.04 395.19 147.21 394.78 145.96 400.59" style="fill: rgb(255, 255, 255); opacity: 0.8; transform-origin: 138.995px 397.685px;" class="animable"></polygon></g><g id="el0xputfcdm6y"><path d="M169.56,261.32c-1.6,13.33-3.45,28.14-5.23,40.89-2.66-13.54-8.66-47,.77-52.88C167.37,252.33,168.78,256.52,169.56,261.32Z" style="opacity: 0.4; transform-origin: 164.774px 275.77px;" class="animable"></path></g><path d="M182.93,223.16s5.41,62.92,5,88.46c-.4,26.57-7.1,88.78-7.1,88.78H169.54s-1.24-60.66-2.41-86.75c-1.28-28.45-9.11-90.49-9.11-90.49Z" style="fill: rgb(38, 50, 56); transform-origin: 172.986px 311.78px;" id="elt7oqpbsmji" class="animable"></path><polygon points="182.57 400.59 167.67 400.59 167.4 395.19 183.82 394.78 182.57 400.59" style="fill: rgb(39, 174, 96); transform-origin: 175.61px 397.685px;" id="eldg5ofalx8bp" class="animable"></polygon><g id="elantp0p6373e"><polygon points="182.57 400.59 167.67 400.59 167.4 395.19 183.82 394.78 182.57 400.59" style="fill: rgb(255, 255, 255); opacity: 0.8; transform-origin: 175.61px 397.685px;" class="animable"></polygon></g><path d="M148.39,221.17l-1.52,3c-.11.24.17.48.56.48h35.68c.3,0,.56-.15.57-.34l.29-3c0-.21-.25-.39-.58-.39H148.94A.61.61,0,0,0,148.39,221.17Z" style="fill: rgb(39, 174, 96); transform-origin: 165.408px 222.784px;" id="el5bwqk3cyfje" class="animable"></path><g id="elbfxmdv1vxma"><path d="M148.39,221.17l-1.52,3c-.11.24.17.48.56.48h35.68c.3,0,.56-.15.57-.34l.29-3c0-.21-.25-.39-.58-.39H148.94A.61.61,0,0,0,148.39,221.17Z" style="fill: rgb(255, 255, 255); opacity: 0.5; transform-origin: 165.408px 222.784px;" class="animable"></path></g><path d="M153,225h-.92c-.19,0-.33-.09-.32-.21l.41-4c0-.11.17-.21.36-.21h.92c.18,0,.32.1.31.21l-.41,4C153.38,224.93,153.22,225,153,225Z" style="fill: rgb(38, 50, 56); transform-origin: 152.76px 222.79px;" id="el3bpuo7wj1pl" class="animable"></path><path d="M175.4,225h-.92c-.18,0-.32-.09-.31-.21l.4-4c0-.11.18-.21.36-.21h.92c.19,0,.33.1.32.21l-.41,4C175.75,224.93,175.59,225,175.4,225Z" style="fill: rgb(38, 50, 56); transform-origin: 175.17px 222.79px;" id="elwsdrqhul97" class="animable"></path></g><defs>     <filter id="active" height="200%">         <feMorphology in="SourceAlpha" result="DILATED" operator="dilate" radius="2"></feMorphology>                <feFlood flood-color="#32DFEC" flood-opacity="1" result="PINK"></feFlood>        <feComposite in="PINK" in2="DILATED" operator="in" result="OUTLINE"></feComposite>        <feMerge>            <feMergeNode in="OUTLINE"></feMergeNode>            <feMergeNode in="SourceGraphic"></feMergeNode>        </feMerge>    </filter>    <filter id="hover" height="200%">        <feMorphology in="SourceAlpha" result="DILATED" operator="dilate" radius="2"></feMorphology>                <feFlood flood-color="#ff0000" flood-opacity="0.5" result="PINK"></feFlood>        <feComposite in="PINK" in2="DILATED" operator="in" result="OUTLINE"></feComposite>        <feMerge>            <feMergeNode in="OUTLINE"></feMergeNode>            <feMergeNode in="SourceGraphic"></feMergeNode>        </feMerge>            <feColorMatrix type="matrix" values="0   0   0   0   0                0   1   0   0   0                0   0   0   0   0                0   0   0   1   0 "></feColorMatrix>    </filter></defs>
</svg>