<svg class="animated" id="freepik_stories-revenue" xmlns="http://www.w3.org/2000/svg" viewBox="0 0 500 500" version="1.1" xmlns:xlink="http://www.w3.org/1999/xlink" xmlns:svgjs="http://svgjs.com/svgjs">
  <style>svg#freepik_stories-revenue:not(.animated) .animable {opacity: 0;}svg#freepik_stories-revenue.animated #elrkleolteobj {animation: 1s 1 forwards cubic-bezier(.36,-0.01,.5,1.38) fadeIn;animation-delay: 0s;}svg#freepik_stories-revenue.animated #elw7d32q8li2 {animation: 1s 1 forwards cubic-bezier(.36,-0.01,.5,1.38) fadeIn;animation-delay: 0.010752688172043012s;opacity: 0}svg#freepik_stories-revenue.animated #eluery26894es {animation: 1s 1 forwards cubic-bezier(.36,-0.01,.5,1.38) fadeIn;animation-delay: 0.021505376344086023s;opacity: 0}svg#freepik_stories-revenue.animated #elod7t5yenyje {animation: 1s 1 forwards cubic-bezier(.36,-0.01,.5,1.38) fadeIn;animation-delay: 0.03225806451612903s;opacity: 0}svg#freepik_stories-revenue.animated #el8atont2mih {animation: 1s 1 forwards cubic-bezier(.36,-0.01,.5,1.38) fadeIn;animation-delay: 0.043010752688172046s;opacity: 0}svg#freepik_stories-revenue.animated #el5bb2s33j73c {animation: 1s 1 forwards cubic-bezier(.36,-0.01,.5,1.38) fadeIn;animation-delay: 0.05376344086021506s;opacity: 0}svg#freepik_stories-revenue.animated #el5utcliykrkj {animation: 1s 1 forwards cubic-bezier(.36,-0.01,.5,1.38) fadeIn;animation-delay: 0.06451612903225806s;opacity: 0}svg#freepik_stories-revenue.animated #el9pnw65cqkj {animation: 1s 1 forwards cubic-bezier(.36,-0.01,.5,1.38) fadeIn;animation-delay: 0.07526881720430108s;opacity: 0}svg#freepik_stories-revenue.animated #el9tios4iqeqa {animation: 1s 1 forwards cubic-bezier(.36,-0.01,.5,1.38) fadeIn;animation-delay: 0.08602150537634409s;opacity: 0}svg#freepik_stories-revenue.animated #el0gfzu8y9wa7i {animation: 1s 1 forwards cubic-bezier(.36,-0.01,.5,1.38) fadeIn;animation-delay: 0.09677419354838711s;opacity: 0}svg#freepik_stories-revenue.animated #el2aciu5yy1d7 {animation: 1s 1 forwards cubic-bezier(.36,-0.01,.5,1.38) fadeIn;animation-delay: 0.10752688172043012s;opacity: 0}svg#freepik_stories-revenue.animated #elvny7vy1z9s {animation: 1s 1 forwards cubic-bezier(.36,-0.01,.5,1.38) fadeIn;animation-delay: 0.11827956989247312s;opacity: 0}svg#freepik_stories-revenue.animated #elf9zpgmrgxzh {animation: 1s 1 forwards cubic-bezier(.36,-0.01,.5,1.38) fadeIn;animation-delay: 0.12903225806451613s;opacity: 0}svg#freepik_stories-revenue.animated #el1xuksu4zvx9 {animation: 1s 1 forwards cubic-bezier(.36,-0.01,.5,1.38) fadeIn;animation-delay: 0.13978494623655915s;opacity: 0}svg#freepik_stories-revenue.animated #el3w4xjdeif7f {animation: 1s 1 forwards cubic-bezier(.36,-0.01,.5,1.38) fadeIn;animation-delay: 0.15053763440860216s;opacity: 0}svg#freepik_stories-revenue.animated #elhmxyzygthu8 {animation: 1s 1 forwards cubic-bezier(.36,-0.01,.5,1.38) fadeIn;animation-delay: 0.16129032258064518s;opacity: 0}svg#freepik_stories-revenue.animated #elg6cq9cq8b {animation: 1s 1 forwards cubic-bezier(.36,-0.01,.5,1.38) fadeIn;animation-delay: 0.17204301075268819s;opacity: 0}svg#freepik_stories-revenue.animated #el5iin0eonv7t {animation: 1s 1 forwards cubic-bezier(.36,-0.01,.5,1.38) fadeIn;animation-delay: 0.1827956989247312s;opacity: 0}svg#freepik_stories-revenue.animated #elx88zxpvcq8n {animation: 1s 1 forwards cubic-bezier(.36,-0.01,.5,1.38) fadeIn;animation-delay: 0.19354838709677422s;opacity: 0}svg#freepik_stories-revenue.animated #elq91avi5qhl {animation: 1s 1 forwards cubic-bezier(.36,-0.01,.5,1.38) fadeIn;animation-delay: 0.20430107526881722s;opacity: 0}svg#freepik_stories-revenue.animated #elpqby0qosir {animation: 1s 1 forwards cubic-bezier(.36,-0.01,.5,1.38) fadeIn;animation-delay: 0.21505376344086025s;opacity: 0}svg#freepik_stories-revenue.animated #elxlpf1e7f58h {animation: 1s 1 forwards cubic-bezier(.36,-0.01,.5,1.38) fadeIn;animation-delay: 0.22580645161290325s;opacity: 0}svg#freepik_stories-revenue.animated #el8eq4zbo17w7 {animation: 1s 1 forwards cubic-bezier(.36,-0.01,.5,1.38) fadeIn;animation-delay: 0.23655913978494625s;opacity: 0}svg#freepik_stories-revenue.animated #elllwzd14ju5d {animation: 1s 1 forwards cubic-bezier(.36,-0.01,.5,1.38) fadeIn;animation-delay: 0.24731182795698928s;opacity: 0}svg#freepik_stories-revenue.animated #eltompc3zrlsn {animation: 1s 1 forwards cubic-bezier(.36,-0.01,.5,1.38) fadeIn;animation-delay: 0.25806451612903225s;opacity: 0}svg#freepik_stories-revenue.animated #el07qx6mfy4sft {animation: 1s 1 forwards cubic-bezier(.36,-0.01,.5,1.38) fadeIn;animation-delay: 0.2688172043010753s;opacity: 0}svg#freepik_stories-revenue.animated #elfummfhuqxzv {animation: 1s 1 forwards cubic-bezier(.36,-0.01,.5,1.38) fadeIn;animation-delay: 0.2795698924731183s;opacity: 0}svg#freepik_stories-revenue.animated #elcwcuzwn69lm {animation: 1s 1 forwards cubic-bezier(.36,-0.01,.5,1.38) fadeIn;animation-delay: 0.2903225806451613s;opacity: 0}svg#freepik_stories-revenue.animated #elwyel5ikvmd {animation: 1s 1 forwards cubic-bezier(.36,-0.01,.5,1.38) fadeIn;animation-delay: 0.3010752688172043s;opacity: 0}svg#freepik_stories-revenue.animated #elzrvisb9qqvq {animation: 1s 1 forwards cubic-bezier(.36,-0.01,.5,1.38) fadeIn;animation-delay: 0.3118279569892473s;opacity: 0}svg#freepik_stories-revenue.animated #elu4fgoy77rd {animation: 1s 1 forwards cubic-bezier(.36,-0.01,.5,1.38) fadeIn;animation-delay: 0.32258064516129037s;opacity: 0}svg#freepik_stories-revenue.animated #eluo9iq2fs62 {animation: 1s 1 forwards cubic-bezier(.36,-0.01,.5,1.38) fadeIn;animation-delay: 0.33333333333333337s;opacity: 0}svg#freepik_stories-revenue.animated #elt0ejsc0bbn {animation: 1s 1 forwards cubic-bezier(.36,-0.01,.5,1.38) fadeIn;animation-delay: 0.34408602150537637s;opacity: 0}svg#freepik_stories-revenue.animated #el62qw74zb5ep {animation: 1s 1 forwards cubic-bezier(.36,-0.01,.5,1.38) fadeIn;animation-delay: 0.3548387096774194s;opacity: 0}svg#freepik_stories-revenue.animated #elguio2vqw19v {animation: 1s 1 forwards cubic-bezier(.36,-0.01,.5,1.38) fadeIn;animation-delay: 0.3655913978494624s;opacity: 0}svg#freepik_stories-revenue.animated #elg0zx8z5gegf {animation: 1s 1 forwards cubic-bezier(.36,-0.01,.5,1.38) fadeIn;animation-delay: 0.37634408602150543s;opacity: 0}svg#freepik_stories-revenue.animated #eliu42bihxqga {animation: 1s 1 forwards cubic-bezier(.36,-0.01,.5,1.38) fadeIn;animation-delay: 0.38709677419354843s;opacity: 0}svg#freepik_stories-revenue.animated #elm16eoxkee3q {animation: 1s 1 forwards cubic-bezier(.36,-0.01,.5,1.38) fadeIn;animation-delay: 0.39784946236559143s;opacity: 0}svg#freepik_stories-revenue.animated #elksxwgh7342b {animation: 1s 1 forwards cubic-bezier(.36,-0.01,.5,1.38) fadeIn;animation-delay: 0.40860215053763443s;opacity: 0}svg#freepik_stories-revenue.animated #eliuzo7gxpln {animation: 1s 1 forwards cubic-bezier(.36,-0.01,.5,1.38) fadeIn;animation-delay: 0.41935483870967744s;opacity: 0}svg#freepik_stories-revenue.animated #elldvjnsl642g {animation: 1s 1 forwards cubic-bezier(.36,-0.01,.5,1.38) fadeIn;animation-delay: 0.4301075268817205s;opacity: 0}svg#freepik_stories-revenue.animated #elm603rl88sp {animation: 1s 1 forwards cubic-bezier(.36,-0.01,.5,1.38) fadeIn;animation-delay: 0.4408602150537635s;opacity: 0}svg#freepik_stories-revenue.animated #eljj61r3fhvra {animation: 1s 1 forwards cubic-bezier(.36,-0.01,.5,1.38) fadeIn;animation-delay: 0.4516129032258065s;opacity: 0}svg#freepik_stories-revenue.animated #eln6mfxl82pf {animation: 1s 1 forwards cubic-bezier(.36,-0.01,.5,1.38) fadeIn;animation-delay: 0.4623655913978495s;opacity: 0}svg#freepik_stories-revenue.animated #elvw52twd1aki {animation: 1s 1 forwards cubic-bezier(.36,-0.01,.5,1.38) fadeIn;animation-delay: 0.4731182795698925s;opacity: 0}svg#freepik_stories-revenue.animated #el978mzlccy0p {animation: 1s 1 forwards cubic-bezier(.36,-0.01,.5,1.38) fadeIn;animation-delay: 0.4838709677419355s;opacity: 0}svg#freepik_stories-revenue.animated #elhubl2mhg9rb {animation: 1s 1 forwards cubic-bezier(.36,-0.01,.5,1.38) fadeIn;animation-delay: 0.49462365591397855s;opacity: 0}svg#freepik_stories-revenue.animated #elbgro1hqoa77 {animation: 1s 1 forwards cubic-bezier(.36,-0.01,.5,1.38) fadeIn;animation-delay: 0.5053763440860215s;opacity: 0}svg#freepik_stories-revenue.animated #elbpskuf9nip5 {animation: 1s 1 forwards cubic-bezier(.36,-0.01,.5,1.38) fadeIn;animation-delay: 0.5161290322580645s;opacity: 0}svg#freepik_stories-revenue.animated #elt8wxu3gvb6g {animation: 1s 1 forwards cubic-bezier(.36,-0.01,.5,1.38) fadeIn;animation-delay: 0.5268817204301076s;opacity: 0}svg#freepik_stories-revenue.animated #elt0xk9sczm4h {animation: 1s 1 forwards cubic-bezier(.36,-0.01,.5,1.38) fadeIn;animation-delay: 0.5376344086021506s;opacity: 0}svg#freepik_stories-revenue.animated #eley4i2rpenks {animation: 1s 1 forwards cubic-bezier(.36,-0.01,.5,1.38) fadeIn;animation-delay: 0.5483870967741936s;opacity: 0}svg#freepik_stories-revenue.animated #el92ygp94zn1c {animation: 1s 1 forwards cubic-bezier(.36,-0.01,.5,1.38) fadeIn;animation-delay: 0.5591397849462366s;opacity: 0}svg#freepik_stories-revenue.animated #elssrput5he6l {animation: 1s 1 forwards cubic-bezier(.36,-0.01,.5,1.38) fadeIn;animation-delay: 0.5698924731182796s;opacity: 0}svg#freepik_stories-revenue.animated #eltx1zmqfmtj {animation: 1s 1 forwards cubic-bezier(.36,-0.01,.5,1.38) fadeIn;animation-delay: 0.5806451612903226s;opacity: 0}svg#freepik_stories-revenue.animated #el98ll1g9px3b {animation: 1s 1 forwards cubic-bezier(.36,-0.01,.5,1.38) fadeIn;animation-delay: 0.5913978494623656s;opacity: 0}svg#freepik_stories-revenue.animated #elslzxg89u33 {animation: 1s 1 forwards cubic-bezier(.36,-0.01,.5,1.38) fadeIn;animation-delay: 0.6021505376344086s;opacity: 0}svg#freepik_stories-revenue.animated #ely6ov8p28i5 {animation: 1s 1 forwards cubic-bezier(.36,-0.01,.5,1.38) fadeIn;animation-delay: 0.6129032258064516s;opacity: 0}svg#freepik_stories-revenue.animated #elh587wwuk2sk {animation: 1s 1 forwards cubic-bezier(.36,-0.01,.5,1.38) fadeIn;animation-delay: 0.6236559139784946s;opacity: 0}svg#freepik_stories-revenue.animated #eljab7apedq3g {animation: 1s 1 forwards cubic-bezier(.36,-0.01,.5,1.38) fadeIn;animation-delay: 0.6344086021505377s;opacity: 0}svg#freepik_stories-revenue.animated #elex0m3dwa39d {animation: 1s 1 forwards cubic-bezier(.36,-0.01,.5,1.38) fadeIn;animation-delay: 0.6451612903225807s;opacity: 0}svg#freepik_stories-revenue.animated #elfrih9jv251k {animation: 1s 1 forwards cubic-bezier(.36,-0.01,.5,1.38) fadeIn;animation-delay: 0.6559139784946237s;opacity: 0}svg#freepik_stories-revenue.animated #ellrp89aswlt {animation: 1s 1 forwards cubic-bezier(.36,-0.01,.5,1.38) fadeIn;animation-delay: 0.6666666666666667s;opacity: 0}svg#freepik_stories-revenue.animated #elgl546mcsgnt {animation: 1s 1 forwards cubic-bezier(.36,-0.01,.5,1.38) fadeIn;animation-delay: 0.6774193548387097s;opacity: 0}svg#freepik_stories-revenue.animated #elhytezfjxpse {animation: 1s 1 forwards cubic-bezier(.36,-0.01,.5,1.38) fadeIn;animation-delay: 0.6881720430107527s;opacity: 0}svg#freepik_stories-revenue.animated #el3jgnxiover8 {animation: 1s 1 forwards cubic-bezier(.36,-0.01,.5,1.38) fadeIn;animation-delay: 0.6989247311827957s;opacity: 0}svg#freepik_stories-revenue.animated #elnh7a07wcmvi {animation: 1s 1 forwards cubic-bezier(.36,-0.01,.5,1.38) fadeIn;animation-delay: 0.7096774193548387s;opacity: 0}svg#freepik_stories-revenue.animated #el3h440hvryqd {animation: 1s 1 forwards cubic-bezier(.36,-0.01,.5,1.38) fadeIn;animation-delay: 0.7204301075268817s;opacity: 0}svg#freepik_stories-revenue.animated #el4z1s1lhom9e {animation: 1s 1 forwards cubic-bezier(.36,-0.01,.5,1.38) fadeIn;animation-delay: 0.7311827956989247s;opacity: 0}svg#freepik_stories-revenue.animated #elhagp4glr56i {animation: 1s 1 forwards cubic-bezier(.36,-0.01,.5,1.38) fadeIn;animation-delay: 0.7419354838709677s;opacity: 0}svg#freepik_stories-revenue.animated #elgz0sko2shh9 {animation: 1s 1 forwards cubic-bezier(.36,-0.01,.5,1.38) fadeIn;animation-delay: 0.7526881720430109s;opacity: 0}svg#freepik_stories-revenue.animated #elx27sjzz0kw {animation: 1s 1 forwards cubic-bezier(.36,-0.01,.5,1.38) fadeIn;animation-delay: 0.7634408602150539s;opacity: 0}svg#freepik_stories-revenue.animated #el3lz3p24fo8g {animation: 1s 1 forwards cubic-bezier(.36,-0.01,.5,1.38) fadeIn;animation-delay: 0.7741935483870969s;opacity: 0}svg#freepik_stories-revenue.animated #ely5z4hnt273k {animation: 1s 1 forwards cubic-bezier(.36,-0.01,.5,1.38) fadeIn;animation-delay: 0.7849462365591399s;opacity: 0}svg#freepik_stories-revenue.animated #elxcbryggat1k {animation: 1s 1 forwards cubic-bezier(.36,-0.01,.5,1.38) fadeIn;animation-delay: 0.7956989247311829s;opacity: 0}svg#freepik_stories-revenue.animated #el1f8xxf6pvra {animation: 1s 1 forwards cubic-bezier(.36,-0.01,.5,1.38) fadeIn;animation-delay: 0.8064516129032259s;opacity: 0}svg#freepik_stories-revenue.animated #el0n9l6q89r2g {animation: 1s 1 forwards cubic-bezier(.36,-0.01,.5,1.38) fadeIn;animation-delay: 0.8172043010752689s;opacity: 0}svg#freepik_stories-revenue.animated #el6p0nxgi61k2 {animation: 1s 1 forwards cubic-bezier(.36,-0.01,.5,1.38) fadeIn;animation-delay: 0.8279569892473119s;opacity: 0}svg#freepik_stories-revenue.animated #ela3zqqrxbp4e {animation: 1s 1 forwards cubic-bezier(.36,-0.01,.5,1.38) fadeIn;animation-delay: 0.8387096774193549s;opacity: 0}svg#freepik_stories-revenue.animated #el3l6yqgavkjv {animation: 1s 1 forwards cubic-bezier(.36,-0.01,.5,1.38) fadeIn;animation-delay: 0.8494623655913979s;opacity: 0}svg#freepik_stories-revenue.animated #eljil75rnqqr9 {animation: 1s 1 forwards cubic-bezier(.36,-0.01,.5,1.38) fadeIn;animation-delay: 0.860215053763441s;opacity: 0}svg#freepik_stories-revenue.animated #el9ykpwndrkat {animation: 1s 1 forwards cubic-bezier(.36,-0.01,.5,1.38) fadeIn;animation-delay: 0.870967741935484s;opacity: 0}svg#freepik_stories-revenue.animated #el0phxff1bsaj {animation: 1s 1 forwards cubic-bezier(.36,-0.01,.5,1.38) fadeIn;animation-delay: 0.881720430107527s;opacity: 0}svg#freepik_stories-revenue.animated #el44rp4u9ulj2 {animation: 1s 1 forwards cubic-bezier(.36,-0.01,.5,1.38) fadeIn;animation-delay: 0.89247311827957s;opacity: 0}svg#freepik_stories-revenue.animated #el3a18qv892i6 {animation: 1s 1 forwards cubic-bezier(.36,-0.01,.5,1.38) fadeIn;animation-delay: 0.903225806451613s;opacity: 0}svg#freepik_stories-revenue.animated #el0b5n9643ritq {animation: 1s 1 forwards cubic-bezier(.36,-0.01,.5,1.38) fadeIn;animation-delay: 0.913978494623656s;opacity: 0}svg#freepik_stories-revenue.animated #el16xb1y2xxil {animation: 1s 1 forwards cubic-bezier(.36,-0.01,.5,1.38) fadeIn;animation-delay: 0.924731182795699s;opacity: 0}svg#freepik_stories-revenue.animated #eldtwg4uapop5 {animation: 1s 1 forwards cubic-bezier(.36,-0.01,.5,1.38) fadeIn;animation-delay: 0.935483870967742s;opacity: 0}svg#freepik_stories-revenue.animated #elfpgwbxfe7ci {animation: 1s 1 forwards cubic-bezier(.36,-0.01,.5,1.38) fadeIn;animation-delay: 0.946236559139785s;opacity: 0}svg#freepik_stories-revenue.animated #el2xkgi29ew2k {animation: 1s 1 forwards cubic-bezier(.36,-0.01,.5,1.38) fadeIn;animation-delay: 0.956989247311828s;opacity: 0}svg#freepik_stories-revenue.animated #el8l8s9wwo1cy {animation: 1s 1 forwards cubic-bezier(.36,-0.01,.5,1.38) fadeIn;animation-delay: 0.967741935483871s;opacity: 0}svg#freepik_stories-revenue.animated #el2f6phjgt306 {animation: 1s 1 forwards cubic-bezier(.36,-0.01,.5,1.38) fadeIn;animation-delay: 0.9784946236559141s;opacity: 0}svg#freepik_stories-revenue.animated #elilfe93k144 {animation: 1s 1 forwards cubic-bezier(.36,-0.01,.5,1.38) fadeIn;animation-delay: 0.9892473118279571s;opacity: 0}svg#freepik_stories-revenue.animated #freepik--Money--inject-136 {animation: 1s 1 forwards cubic-bezier(.36,-0.01,.5,1.38) fadeIn;animation-delay: 0s;}svg#freepik_stories-revenue.animated #freepik--Character--inject-136 {animation: 1s 1 forwards cubic-bezier(.36,-0.01,.5,1.38) slideLeft;animation-delay: 2s;opacity: 0}            @keyframes fadeIn {                0% {                    opacity: 0;                }                100% {                    opacity: 1;                }            }                    @keyframes slideLeft {                0% {                    opacity: 0;                    transform: translateX(-30px);                }                100% {                    opacity: 1;                    transform: translateX(0);                }            }        </style><g id="freepik--background-simple--inject-136" class="animable" style="transform-origin: 237.22px 213.706px;"><g id="elblhkjev3dro"><g style="opacity: 0.9; transform-origin: 237.22px 213.706px;" class="animable"><path d="M61.32,245.6c-34.57-89,77.37-140.57,142-130.82,25.67,3.88,36,12,61.35,2.36,18.43-7,27.78-28.58,48.13-33.37,44.63-10.5,91.79,30.79,102.56,68.62,11.18,39.24.45,79.88-34.51,94.18-25.58,10.47-51.71-2.88-66.67,3.58-30.77,13.27-29.38,34.23-47.53,56.58C200,388.77,92.73,326.41,61.32,245.6Z" style="fill: rgb(39, 174, 96); transform-origin: 237.22px 213.706px;" id="ellsge7y11i3k" class="animable"></path></g></g><g id="eltglqqfvfdsn"><g style="opacity: 0.9; transform-origin: 237.22px 213.706px;" class="animable"><path d="M61.32,245.6c-34.57-89,77.37-140.57,142-130.82,25.67,3.88,36,12,61.35,2.36,18.43-7,27.78-28.58,48.13-33.37,44.63-10.5,91.79,30.79,102.56,68.62,11.18,39.24.45,79.88-34.51,94.18-25.58,10.47-51.71-2.88-66.67,3.58-30.77,13.27-29.38,34.23-47.53,56.58C200,388.77,92.73,326.41,61.32,245.6Z" style="fill: rgb(255, 255, 255); transform-origin: 237.22px 213.706px;" id="el0dd5e6qjjc8" class="animable"></path></g></g></g><g id="freepik--Shadow--inject-136" class="animable" style="transform-origin: 245.35px 439.91px;"><ellipse cx="245.35" cy="439.91" rx="159.43" ry="12.46" style="fill: rgb(245, 245, 245); transform-origin: 245.35px 439.91px;" id="el4ligxbcvfsj" class="animable"></ellipse></g><g id="freepik--Money--inject-136" class="animable" style="transform-origin: 234.362px 293.379px;"><path d="M396.91,161.59,375.6,228.07a4.62,4.62,0,0,1-7.73,1.8L356.79,218.4a4.64,4.64,0,0,0-6.44-.21l-92.53,84a4.63,4.63,0,0,1-6.07.13L193,253.47a4.63,4.63,0,0,0-6,.1L71.59,355.85l4.38-41a4.6,4.6,0,0,1,1.53-3l108.91-96.52a4.64,4.64,0,0,1,6-.09L250.92,264a4.63,4.63,0,0,0,6.07-.13l73-66.31a4.62,4.62,0,0,0,.21-6.64L319.3,179.58a4.63,4.63,0,0,1,2.28-7.73l69.88-16.18A4.62,4.62,0,0,1,396.91,161.59Z" style="fill: rgb(39, 174, 96); transform-origin: 234.362px 255.699px;" id="elrkleolteobj" class="animable"></path><g id="elw7d32q8li2"><path d="M396.88,161.7,375.64,228a4.7,4.7,0,0,1-7.85,1.82l-11-11.34a4.71,4.71,0,0,0-6.54-.22l-92.43,83.93a4.68,4.68,0,0,1-3.35,1.22,4.61,4.61,0,0,1-2.82-1.08l-58.62-48.79a4.74,4.74,0,0,0-6.12.09L71.59,355.85l4.57-42.73,110.21-97.67a4.72,4.72,0,0,1,6.12-.09l24.91,20.73L250.87,264a4.72,4.72,0,0,0,6.16-.13L330,197.6a4.68,4.68,0,0,0,.22-6.74l-10.81-11.19a4.7,4.7,0,0,1,2.32-7.84l69.64-16.14A4.7,4.7,0,0,1,396.88,161.7Z" style="opacity: 0.1; transform-origin: 234.346px 255.713px;" class="animable"></path></g><rect x="191" y="411.04" width="85.31" height="19.36" style="fill: rgb(39, 174, 96); transform-origin: 233.655px 420.72px;" id="eluery26894es" class="animable"></rect><g id="elod7t5yenyje"><rect x="199.49" y="411.04" width="2.31" height="19.36" style="opacity: 0.2; transform-origin: 200.645px 420.72px;" class="animable"></rect></g><g id="el8atont2mih"><rect x="211.36" y="411.04" width="2.31" height="19.36" style="opacity: 0.2; transform-origin: 212.515px 420.72px;" class="animable"></rect></g><g id="el5bb2s33j73c"><polygon points="225.53 430.4 223.22 430.4 223.22 411.04 225.53 411.38 225.53 430.4" style="opacity: 0.2; transform-origin: 224.375px 420.72px;" class="animable"></polygon></g><g id="el5utcliykrkj"><rect x="235.09" y="411.04" width="2.31" height="19.36" style="opacity: 0.2; transform-origin: 236.245px 420.72px;" class="animable"></rect></g><g id="el9pnw65cqkj"><rect x="246.96" y="411.04" width="2.31" height="19.36" style="opacity: 0.2; transform-origin: 248.115px 420.72px;" class="animable"></rect></g><g id="el9tios4iqeqa"><rect x="258.82" y="411.04" width="2.31" height="19.36" style="opacity: 0.2; transform-origin: 259.975px 420.72px;" class="animable"></rect></g><g id="el0gfzu8y9wa7i"><rect x="270.69" y="411.04" width="2.31" height="19.36" style="opacity: 0.2; transform-origin: 271.845px 420.72px;" class="animable"></rect></g><g id="el2aciu5yy1d7"><rect x="191" y="411.04" width="85.31" height="3.99" style="opacity: 0.09; transform-origin: 233.655px 413.035px;" class="animable"></rect></g><rect x="204.3" y="391.67" width="85.31" height="19.36" style="fill: rgb(39, 174, 96); transform-origin: 246.955px 401.35px;" id="elvny7vy1z9s" class="animable"></rect><g id="elf9zpgmrgxzh"><rect x="212.79" y="391.67" width="2.31" height="19.36" style="opacity: 0.2; transform-origin: 213.945px 401.35px;" class="animable"></rect></g><g id="el1xuksu4zvx9"><rect x="224.66" y="391.67" width="2.31" height="19.36" style="opacity: 0.2; transform-origin: 225.815px 401.35px;" class="animable"></rect></g><g id="el3w4xjdeif7f"><rect x="236.53" y="391.67" width="2.31" height="19.36" style="opacity: 0.2; transform-origin: 237.685px 401.35px;" class="animable"></rect></g><g id="elhmxyzygthu8"><rect x="248.39" y="391.67" width="2.31" height="19.36" style="opacity: 0.2; transform-origin: 249.545px 401.35px;" class="animable"></rect></g><g id="elg6cq9cq8b"><rect x="260.26" y="391.67" width="2.31" height="19.36" style="opacity: 0.2; transform-origin: 261.415px 401.35px;" class="animable"></rect></g><g id="el5iin0eonv7t"><rect x="272.12" y="391.67" width="2.31" height="19.36" style="opacity: 0.2; transform-origin: 273.275px 401.35px;" class="animable"></rect></g><g id="elx88zxpvcq8n"><rect x="283.99" y="391.67" width="2.31" height="19.36" style="opacity: 0.2; transform-origin: 285.145px 401.35px;" class="animable"></rect></g><g id="elq91avi5qhl"><rect x="204.3" y="391.67" width="85.31" height="3.99" style="opacity: 0.09; transform-origin: 246.955px 393.665px;" class="animable"></rect></g><rect x="192.44" y="372.31" width="85.31" height="19.36" style="fill: rgb(39, 174, 96); transform-origin: 235.095px 381.99px;" id="elpqby0qosir" class="animable"></rect><g id="elxlpf1e7f58h"><rect x="200.93" y="372.31" width="2.31" height="19.36" style="opacity: 0.2; transform-origin: 202.085px 381.99px;" class="animable"></rect></g><g id="el8eq4zbo17w7"><polygon points="215.1 391.68 212.79 391.68 212.79 372.33 215.1 372.31 215.1 391.68" style="opacity: 0.2; transform-origin: 213.945px 381.995px;" class="animable"></polygon></g><g id="elllwzd14ju5d"><rect x="224.66" y="372.31" width="2.31" height="19.36" style="opacity: 0.2; transform-origin: 225.815px 381.99px;" class="animable"></rect></g><g id="eltompc3zrlsn"><rect x="236.53" y="372.31" width="2.31" height="19.36" style="opacity: 0.2; transform-origin: 237.685px 381.99px;" class="animable"></rect></g><g id="el07qx6mfy4sft"><polygon points="250.7 391.68 248.39 391.68 248.39 372.31 250.7 372.33 250.7 391.68" style="opacity: 0.2; transform-origin: 249.545px 381.995px;" class="animable"></polygon></g><g id="elfummfhuqxzv"><rect x="260.26" y="372.31" width="2.31" height="19.36" style="opacity: 0.2; transform-origin: 261.415px 381.99px;" class="animable"></rect></g><g id="elcwcuzwn69lm"><rect x="272.12" y="372.31" width="2.31" height="19.36" style="opacity: 0.2; transform-origin: 273.275px 381.99px;" class="animable"></rect></g><g id="elwyel5ikvmd"><rect x="192.44" y="372.31" width="85.31" height="4.77" style="opacity: 0.09; transform-origin: 235.095px 374.695px;" class="animable"></rect></g><rect x="204.3" y="352.96" width="85.31" height="19.36" style="fill: rgb(39, 174, 96); transform-origin: 246.955px 362.64px;" id="elzrvisb9qqvq" class="animable"></rect><g id="elu4fgoy77rd"><rect x="212.79" y="352.96" width="2.31" height="19.36" style="opacity: 0.2; transform-origin: 213.945px 362.64px;" class="animable"></rect></g><g id="eluo9iq2fs62"><rect x="224.66" y="352.96" width="2.31" height="19.36" style="opacity: 0.2; transform-origin: 225.815px 362.64px;" class="animable"></rect></g><g id="elt0ejsc0bbn"><rect x="236.53" y="352.96" width="2.31" height="19.36" style="opacity: 0.2; transform-origin: 237.685px 362.64px;" class="animable"></rect></g><g id="el62qw74zb5ep"><rect x="248.39" y="352.96" width="2.31" height="19.36" style="opacity: 0.2; transform-origin: 249.545px 362.64px;" class="animable"></rect></g><g id="elguio2vqw19v"><rect x="260.26" y="352.96" width="2.31" height="19.36" style="opacity: 0.2; transform-origin: 261.415px 362.64px;" class="animable"></rect></g><g id="elg0zx8z5gegf"><polygon points="274.43 372.31 272.12 372.33 272.12 352.96 274.43 353.31 274.43 372.31" style="opacity: 0.2; transform-origin: 273.275px 362.645px;" class="animable"></polygon></g><g id="eliu42bihxqga"><rect x="283.99" y="352.96" width="2.31" height="19.36" style="opacity: 0.2; transform-origin: 285.145px 362.64px;" class="animable"></rect></g><g id="elm16eoxkee3q"><rect x="204.3" y="352.96" width="85.31" height="3.99" style="opacity: 0.09; transform-origin: 246.955px 354.955px;" class="animable"></rect></g><rect x="208.05" y="333.6" width="85.31" height="19.36" style="fill: rgb(39, 174, 96); transform-origin: 250.705px 343.28px;" id="elksxwgh7342b" class="animable"></rect><g id="eliuzo7gxpln"><rect x="216.54" y="333.6" width="2.31" height="19.36" style="opacity: 0.2; transform-origin: 217.695px 343.28px;" class="animable"></rect></g><g id="elldvjnsl642g"><rect x="228.4" y="333.6" width="2.31" height="19.36" style="opacity: 0.2; transform-origin: 229.555px 343.28px;" class="animable"></rect></g><g id="elm603rl88sp"><rect x="240.27" y="333.6" width="2.31" height="19.36" style="opacity: 0.2; transform-origin: 241.425px 343.28px;" class="animable"></rect></g><g id="eljj61r3fhvra"><rect x="252.14" y="333.6" width="2.31" height="19.36" style="opacity: 0.2; transform-origin: 253.295px 343.28px;" class="animable"></rect></g><g id="eln6mfxl82pf"><rect x="264" y="333.6" width="2.31" height="19.36" style="opacity: 0.2; transform-origin: 265.155px 343.28px;" class="animable"></rect></g><g id="elvw52twd1aki"><rect x="275.87" y="333.6" width="2.31" height="19.36" style="opacity: 0.2; transform-origin: 277.025px 343.28px;" class="animable"></rect></g><g id="el978mzlccy0p"><rect x="287.73" y="333.6" width="2.31" height="19.36" style="opacity: 0.2; transform-origin: 288.885px 343.28px;" class="animable"></rect></g><g id="elhubl2mhg9rb"><rect x="208.05" y="333.6" width="85.31" height="3.99" style="opacity: 0.09; transform-origin: 250.705px 335.595px;" class="animable"></rect></g><rect x="197.9" y="314.24" width="85.31" height="19.36" style="fill: rgb(39, 174, 96); transform-origin: 240.555px 323.92px;" id="elbgro1hqoa77" class="animable"></rect><g id="elbpskuf9nip5"><rect x="206.39" y="314.24" width="2.31" height="19.36" style="opacity: 0.2; transform-origin: 207.545px 323.92px;" class="animable"></rect></g><g id="elt8wxu3gvb6g"><rect x="218.26" y="314.24" width="2.31" height="19.36" style="opacity: 0.2; transform-origin: 219.415px 323.92px;" class="animable"></rect></g><g id="elt0xk9sczm4h"><rect x="230.12" y="314.24" width="2.31" height="19.36" style="opacity: 0.2; transform-origin: 231.275px 323.92px;" class="animable"></rect></g><g id="eley4i2rpenks"><rect x="241.99" y="314.24" width="2.31" height="19.36" style="opacity: 0.2; transform-origin: 243.145px 323.92px;" class="animable"></rect></g><g id="el92ygp94zn1c"><rect x="253.85" y="314.24" width="2.31" height="19.36" style="opacity: 0.2; transform-origin: 255.005px 323.92px;" class="animable"></rect></g><g id="elssrput5he6l"><rect x="265.72" y="314.24" width="2.31" height="19.36" style="opacity: 0.2; transform-origin: 266.875px 323.92px;" class="animable"></rect></g><g id="eltx1zmqfmtj"><rect x="277.59" y="314.24" width="2.31" height="19.36" style="opacity: 0.2; transform-origin: 278.745px 323.92px;" class="animable"></rect></g><g id="el98ll1g9px3b"><rect x="197.9" y="314.24" width="85.31" height="3.99" style="opacity: 0.09; transform-origin: 240.555px 316.235px;" class="animable"></rect></g><rect x="84.33" y="411.33" width="85.31" height="19.36" style="fill: rgb(39, 174, 96); transform-origin: 126.985px 421.01px;" id="elslzxg89u33" class="animable"></rect><g id="ely6ov8p28i5"><rect x="92.82" y="411.33" width="2.31" height="19.36" style="opacity: 0.2; transform-origin: 93.975px 421.01px;" class="animable"></rect></g><g id="elh587wwuk2sk"><rect x="104.69" y="411.33" width="2.31" height="19.36" style="opacity: 0.2; transform-origin: 105.845px 421.01px;" class="animable"></rect></g><g id="eljab7apedq3g"><rect x="116.56" y="411.33" width="2.31" height="19.36" style="opacity: 0.2; transform-origin: 117.715px 421.01px;" class="animable"></rect></g><g id="elex0m3dwa39d"><rect x="128.42" y="411.33" width="2.31" height="19.36" style="opacity: 0.2; transform-origin: 129.575px 421.01px;" class="animable"></rect></g><g id="elfrih9jv251k"><rect x="140.29" y="411.33" width="2.31" height="19.36" style="opacity: 0.2; transform-origin: 141.445px 421.01px;" class="animable"></rect></g><g id="ellrp89aswlt"><rect x="152.15" y="411.33" width="2.31" height="19.36" style="opacity: 0.2; transform-origin: 153.305px 421.01px;" class="animable"></rect></g><g id="elgl546mcsgnt"><rect x="164.02" y="411.33" width="2.31" height="19.36" style="opacity: 0.2; transform-origin: 165.175px 421.01px;" class="animable"></rect></g><g id="elhytezfjxpse"><rect x="84.33" y="411.33" width="85.31" height="3.99" style="opacity: 0.09; transform-origin: 126.985px 413.325px;" class="animable"></rect></g><rect x="88.36" y="391.97" width="85.31" height="19.36" style="fill: rgb(39, 174, 96); transform-origin: 131.015px 401.65px;" id="el3jgnxiover8" class="animable"></rect><g id="elnh7a07wcmvi"><rect x="96.85" y="391.97" width="2.31" height="19.36" style="opacity: 0.2; transform-origin: 98.005px 401.65px;" class="animable"></rect></g><g id="el3h440hvryqd"><rect x="108.72" y="391.97" width="2.31" height="19.36" style="opacity: 0.2; transform-origin: 109.875px 401.65px;" class="animable"></rect></g><g id="el4z1s1lhom9e"><rect x="120.58" y="391.97" width="2.31" height="19.36" style="opacity: 0.2; transform-origin: 121.735px 401.65px;" class="animable"></rect></g><g id="elhagp4glr56i"><rect x="132.45" y="391.97" width="2.31" height="19.36" style="opacity: 0.2; transform-origin: 133.605px 401.65px;" class="animable"></rect></g><g id="elgz0sko2shh9"><rect x="144.31" y="391.97" width="2.31" height="19.36" style="opacity: 0.2; transform-origin: 145.465px 401.65px;" class="animable"></rect></g><g id="elx27sjzz0kw"><rect x="156.18" y="391.97" width="2.31" height="19.36" style="opacity: 0.2; transform-origin: 157.335px 401.65px;" class="animable"></rect></g><g id="el3lz3p24fo8g"><rect x="168.05" y="391.97" width="2.31" height="19.36" style="opacity: 0.2; transform-origin: 169.205px 401.65px;" class="animable"></rect></g><g id="ely5z4hnt273k"><rect x="88.36" y="391.97" width="85.31" height="3.65" style="opacity: 0.09; transform-origin: 131.015px 393.795px;" class="animable"></rect></g><rect x="83.13" y="372.6" width="85.31" height="19.36" style="fill: rgb(39, 174, 96); transform-origin: 125.785px 382.28px;" id="elxcbryggat1k" class="animable"></rect><g id="el1f8xxf6pvra"><rect x="91.62" y="372.6" width="2.31" height="19.36" style="opacity: 0.2; transform-origin: 92.775px 382.28px;" class="animable"></rect></g><g id="el0n9l6q89r2g"><rect x="103.49" y="372.6" width="2.31" height="19.36" style="opacity: 0.2; transform-origin: 104.645px 382.28px;" class="animable"></rect></g><g id="el6p0nxgi61k2"><rect x="115.35" y="372.6" width="2.31" height="19.36" style="opacity: 0.2; transform-origin: 116.505px 382.28px;" class="animable"></rect></g><g id="ela3zqqrxbp4e"><rect x="127.22" y="372.6" width="2.31" height="19.36" style="opacity: 0.2; transform-origin: 128.375px 382.28px;" class="animable"></rect></g><g id="el3l6yqgavkjv"><rect x="139.09" y="372.6" width="2.31" height="19.36" style="opacity: 0.2; transform-origin: 140.245px 382.28px;" class="animable"></rect></g><g id="eljil75rnqqr9"><rect x="150.95" y="372.6" width="2.31" height="19.36" style="opacity: 0.2; transform-origin: 152.105px 382.28px;" class="animable"></rect></g><g id="el9ykpwndrkat"><rect x="162.82" y="372.6" width="2.31" height="19.36" style="opacity: 0.2; transform-origin: 163.975px 382.28px;" class="animable"></rect></g><g id="el0phxff1bsaj"><rect x="83.13" y="372.6" width="85.31" height="3.65" style="opacity: 0.09; transform-origin: 125.785px 374.425px;" class="animable"></rect></g><rect x="337.15" y="362.89" width="18.69" height="68.32" style="fill: rgb(39, 174, 96); transform-origin: 346.495px 397.05px;" id="el44rp4u9ulj2" class="animable"></rect><g id="el3a18qv892i6"><g style="opacity: 0.4; transform-origin: 346.495px 392.28px;" class="animable"><polygon points="355.84 381.07 355.84 394.96 337.15 413.65 337.15 398.71 355.84 381.07" style="fill: rgb(255, 255, 255); transform-origin: 346.495px 397.36px;" id="el7ytlw9a9uod" class="animable"></polygon><polygon points="355.84 370.91 355.84 373.27 337.15 391.97 337.15 389.61 355.84 370.91" style="fill: rgb(255, 255, 255); transform-origin: 346.495px 381.44px;" id="eli9q65jtnnk" class="animable"></polygon></g></g><rect x="360.16" y="384.9" width="18.69" height="46.31" style="fill: rgb(39, 174, 96); transform-origin: 369.505px 408.055px;" id="el0b5n9643ritq" class="animable"></rect><g id="el16xb1y2xxil"><g style="opacity: 0.4; transform-origin: 369.505px 411.525px;" class="animable"><polygon points="378.85 398.55 378.85 412.3 360.16 430.98 360.16 416.2 378.85 398.55" style="fill: rgb(255, 255, 255); transform-origin: 369.505px 414.765px;" id="el18cyn73cbmy" class="animable"></polygon><polygon points="378.85 392.07 378.85 394.71 360.16 413.41 360.16 410.75 378.85 392.07" style="fill: rgb(255, 255, 255); transform-origin: 369.505px 402.74px;" id="elunohuo3dv99" class="animable"></polygon></g></g><rect x="314.13" y="330.06" width="18.69" height="101.15" style="fill: rgb(39, 174, 96); transform-origin: 323.475px 380.635px;" id="eldtwg4uapop5" class="animable"></rect><g id="elfpgwbxfe7ci"><g style="opacity: 0.4; transform-origin: 323.48px 361.505px;" class="animable"><polygon points="332.83 349.05 332.83 362.87 314.13 381.56 314.13 366.7 332.83 349.05" style="fill: rgb(255, 255, 255); transform-origin: 323.48px 365.305px;" id="elyoqdi5in8vd" class="animable"></polygon><polygon points="332.83 341.45 332.83 344.03 314.13 362.74 314.13 360.14 332.83 341.45" style="fill: rgb(255, 255, 255); transform-origin: 323.48px 352.095px;" id="el2dbdm70wwyc" class="animable"></polygon></g></g><path d="M325.75,338.52a2.68,2.68,0,1,1-.85-3.69A2.69,2.69,0,0,1,325.75,338.52Z" style="fill: rgb(38, 50, 56); transform-origin: 323.475px 337.101px;" id="el2xkgi29ew2k" class="animable"></path><path d="M348.76,371a2.67,2.67,0,1,1-.85-3.69A2.67,2.67,0,0,1,348.76,371Z" style="fill: rgb(38, 50, 56); transform-origin: 346.5px 369.578px;" id="el8l8s9wwo1cy" class="animable"></path><path d="M371.77,393a2.67,2.67,0,1,1-.85-3.68A2.66,2.66,0,0,1,371.77,393Z" style="fill: rgb(38, 50, 56); transform-origin: 369.508px 391.585px;" id="el2f6phjgt306" class="animable"></path><polyline points="369.51 391.56 345.79 413.65 346.49 369.58 323.48 383.81 323.48 337.1" style="fill: none; stroke: rgb(38, 50, 56); stroke-miterlimit: 10; transform-origin: 346.495px 375.375px;" id="elilfe93k144" class="animable"></polyline></g><g id="freepik--Character--inject-136" class="animable animator-active" style="transform-origin: 186.841px 278.782px;"><path d="M155.42,214.28s-6.37,9.4-7.86,10.37-21.6-2.85-31.47-8L111,210.27l-7.68-2.7-4.41,8.76,6.09,4s3.9,4.49,8.27,3.24c0,0,15.72,10.26,27,12.88s13.89-.41,17.18-3.09,12-15.39,12-15.39Z" style="fill: rgb(181, 91, 82); transform-origin: 134.18px 222.512px;" id="elk7bj5yncyp" class="animable"></path><path d="M215.87,174.74s25.16-7.68,33.68-14.05c0,0,12.93-15.82,15.08-32.71l-2.91-8.79,1.54-10,9.58,2.14s5,10.52-1.09,18.76c0,0-1.63,24.48-12,37.24s-42.81,21.29-42.81,21.29Z" style="fill: rgb(181, 91, 82); transform-origin: 245.321px 148.905px;" id="elxi71icuuwxr" class="animable"></path><path d="M224.89,267.19l-2.06-74L239,185.46l-10.39-18.54s-12.61,3.7-23.53,3.7c-14.51,0-29.11,11-37,14.12s-16.65,29.95-16.65,29.95l18.24,9.77,3.42-10.06s4.91,37.18,4.93,53.49Z" style="fill: rgb(39, 174, 96); transform-origin: 195.215px 217.405px;" id="elt8czsve0ch" class="animable"></path><g id="el582hb4xppkc"><path d="M224.89,267.19l-2.06-74L239,185.46l-10.39-18.54s-12.61,3.7-23.53,3.7c-14.51,0-29.11,11-37,14.12s-16.65,29.95-16.65,29.95l18.24,9.77,3.42-10.06s4.91,37.18,4.93,53.49Z" style="fill: rgb(255, 255, 255); opacity: 0.1; transform-origin: 195.215px 217.405px;" class="animable"></path></g><path d="M188,163.87s-12.63,1.32-14.92-8.73c0,0-7.54-3-2.18-10.44,0,0-6.94-10.33,1.92-13.4a19.84,19.84,0,0,1,13.86-11.72c7.17-1.76,5.14,2.09,5.14,2.09s14.87-5.75,17,.66-9.45,9.25-9.45,9.25Z" style="fill: rgb(38, 50, 56); transform-origin: 188.698px 141.523px;" id="elxlik6pmscth" class="animable"></path><path d="M195.86,162a14.89,14.89,0,0,0,.22,1.79c.51,3,2.57,7.78,7.57,9.36,0,0,.69,5.34-7.57,4.42s-12.19-2.39-12.19-2.39a47.84,47.84,0,0,0-.24-19.54s-4.66.78-7.29-1.88-1.68-9.39,6.55-5.58c0,0,1.78-9.81-4-12.76,0,0,11.32,1.64,20.37-3.87,0,0,7.81,10,6.72,19.55S195.86,162,195.86,162Z" style="fill: rgb(181, 91, 82); transform-origin: 190.58px 154.613px;" id="el7gpldqfw44" class="animable"></path><path d="M197.87,150.47s-2.94,1.91-6.29-.85" style="fill: none; stroke: rgb(38, 50, 56); stroke-linecap: round; stroke-linejoin: round; stroke-width: 0.722314px; transform-origin: 194.725px 150.367px;" id="elgrqju2h80th" class="animable"></path><path d="M191,142.22c.18.73.69,1.23,1.14,1.12s.67-.79.49-1.52-.69-1.24-1.14-1.13S190.77,141.49,191,142.22Z" style="fill: rgb(38, 50, 56); transform-origin: 191.805px 142.015px;" id="elllxpwjjlpu" class="animable"></path><path d="M198.85,139.29c.18.74.69,1.24,1.14,1.13s.67-.8.49-1.53-.69-1.23-1.14-1.12S198.67,138.56,198.85,139.29Z" style="fill: rgb(38, 50, 56); transform-origin: 199.665px 139.095px;" id="elv9klbgyk7p" class="animable"></path><path d="M190.48,136.91a3.47,3.47,0,0,0-2.53,3" style="fill: none; stroke: rgb(38, 50, 56); stroke-linecap: round; stroke-linejoin: round; stroke-width: 0.963085px; transform-origin: 189.215px 138.41px;" id="eleg5sk5q2gw" class="animable"></path><path d="M201.15,134.37s-1.78-1.33-3.35-.19" style="fill: none; stroke: rgb(38, 50, 56); stroke-linecap: round; stroke-linejoin: round; stroke-width: 0.963085px; transform-origin: 199.475px 134.044px;" id="elmcdclnf6rbi" class="animable"></path><path d="M199.08,146.75l-1.86-6.13,5.24,4.36A3.08,3.08,0,0,1,199.08,146.75Z" style="fill: rgb(160, 39, 36); transform-origin: 199.84px 143.711px;" id="elotnxyai6grl" class="animable"></path><g id="eln43g7f3sp8"><path d="M196.08,163.82a5.38,5.38,0,0,1-4.31-1.08c1.53-.16,4.09-.71,4.09-.71A14.89,14.89,0,0,0,196.08,163.82Z" style="opacity: 0.19; transform-origin: 193.925px 162.969px;" class="animable"></path></g><path d="M200.52,177.71l-.05,9.58-4.7.43s-3.59-3.52-3.82-5.36S197.12,175.69,200.52,177.71Z" style="fill: rgb(38, 50, 56); transform-origin: 196.231px 182.473px;" id="elivf9nc7dv9m" class="animable"></path><path d="M199.79,186.31s7.06,26,10.45,39L206.38,233l-6.5-6.49-3.51-39.77Z" style="fill: rgb(38, 50, 56); transform-origin: 203.305px 209.655px;" id="elzc3lfmp2o89" class="animable"></path><path d="M232.08,422l-14.32,2.25s-4.41-54.71-5.54-75.23c-.19-3.55-.55-7.33-1-11.17h0c-2.22-18.42-6.76-38.11-6.76-38.11s-1.48,32.85-5.58,58-21.45,62-21.45,62l-13.62-6.27c10.64-30.44,13.08-68.35,14-82.53s-.12-72.5-.12-72.5l46.9-2.05c4.53,22.08,10.42,72.55,11.07,90S232.08,422,232.08,422Z" style="fill: rgb(38, 50, 56); transform-origin: 199.769px 340.32px;" id="elz0bd5616ky7" class="animable"></path><polygon points="229.54 426.16 230.3 437.66 221.83 439.57 220.94 426.71 229.54 426.16" style="fill: rgb(181, 91, 82); transform-origin: 225.62px 432.865px;" id="ellmkk6hkf2j" class="animable"></polygon><polygon points="234.36 420.12 216.23 423.63 217.12 429.26 234.02 426.19 234.36 420.12" style="fill: rgb(39, 174, 96); transform-origin: 225.295px 424.69px;" id="elemnh125wiop" class="animable"></polygon><polygon points="174.5 421.31 169.5 431.97 161.45 428.86 166.82 417.75 174.5 421.31" style="fill: rgb(181, 91, 82); transform-origin: 167.975px 424.86px;" id="el5993024q9au" class="animable"></polygon><path d="M162,429l9.44,3.72a1.8,1.8,0,0,1,.95.85c.72,1.39,2.69,4.8,5.05,6.1,3,1.66,4.59,2.82,3.51,4.54s-2.72,1.13-4.4.69c-1.37-.36-14.28-5.77-19-7.77a1.61,1.61,0,0,1-.73-2.35l3.27-5.14A1.62,1.62,0,0,1,162,429Z" style="fill: rgb(38, 50, 56); transform-origin: 168.928px 437.134px;" id="eltnbbg5acxyq" class="animable"></path><path d="M221.65,439.13l10-2a1.82,1.82,0,0,1,1.25.21c1.36.77,4.85,2.59,7.54,2.42,3.41-.22,5.38-.1,5.4,1.93s-1.68,2.42-3.34,2.95c-1.34.43-15.13,2.83-20.22,3.71a1.6,1.6,0,0,1-1.88-1.58l0-6.1A1.62,1.62,0,0,1,221.65,439.13Z" style="fill: rgb(38, 50, 56); transform-origin: 233.12px 442.736px;" id="elpevdjnr452" class="animable"></path><polygon points="182.51 417.41 163.08 413.24 161.37 418.87 179 424.05 182.51 417.41" style="fill: rgb(39, 174, 96); transform-origin: 171.94px 418.645px;" id="el84qul87c77" class="animable"></polygon><g id="el9s3j7kkh6o"><path d="M211.21,338c-2.22-18.41-6.76-38.11-6.76-38.11l-1.92-24.51S213.37,317.72,211.21,338Z" style="opacity: 0.61; transform-origin: 207.012px 306.69px;" class="animable"></path></g><path d="M184.39,172.26a37.36,37.36,0,0,0,11.69,5.34L193,186.67s-7.53-3.46-11.35-6.59Z" style="fill: rgb(255, 255, 255); transform-origin: 188.865px 179.465px;" id="elbd934dva4xn" class="animable"></path><path d="M196.08,177.6l5.07,7.86a30.82,30.82,0,0,0,4.95-10.7l-5.7-4.14S198,175.86,196.08,177.6Z" style="fill: rgb(255, 255, 255); transform-origin: 201.09px 178.04px;" id="elr1169xwg6vm" class="animable"></path></g><defs>     <filter id="active" height="200%">         <feMorphology in="SourceAlpha" result="DILATED" operator="dilate" radius="2"></feMorphology>                <feFlood flood-color="#32DFEC" flood-opacity="1" result="PINK"></feFlood>        <feComposite in="PINK" in2="DILATED" operator="in" result="OUTLINE"></feComposite>        <feMerge>            <feMergeNode in="OUTLINE"></feMergeNode>            <feMergeNode in="SourceGraphic"></feMergeNode>        </feMerge>    </filter>    <filter id="hover" height="200%">        <feMorphology in="SourceAlpha" result="DILATED" operator="dilate" radius="2"></feMorphology>                <feFlood flood-color="#ff0000" flood-opacity="0.5" result="PINK"></feFlood>        <feComposite in="PINK" in2="DILATED" operator="in" result="OUTLINE"></feComposite>        <feMerge>            <feMergeNode in="OUTLINE"></feMergeNode>            <feMergeNode in="SourceGraphic"></feMergeNode>        </feMerge>            <feColorMatrix type="matrix" values="0   0   0   0   0                0   1   0   0   0                0   0   0   0   0                0   0   0   1   0 "></feColorMatrix>    </filter></defs>
</svg>