<?xml version="1.0" encoding="iso-8859-1"?>
<!-- Generator: Adobe Illustrator 18.0.0, SVG Export Plug-In . SVG Version: 6.00 Build 0)  -->
<!DOCTYPE svg PUBLIC "-//W3C//DTD SVG 1.1//EN" "http://www.w3.org/Graphics/SVG/1.1/DTD/svg11.dtd">
<svg version="1.1" id="Capa_1" xmlns="http://www.w3.org/2000/svg" xmlns:xlink="http://www.w3.org/1999/xlink" x="0px" y="0px"
	 viewBox="0 0 208.623 208.623" style="enable-background:new 0 0 208.623 208.623;" xml:space="preserve">
<path d="M157.781,61.555l-4.061,0.738l3.272-2.515c0.447-0.344,11.23-8.421,35.003-8.421c1.151,0,2.327,0.034,3.505,0.073
	c10.441-26.368,13.122-47.118,13.122-47.118s-41.926,5.413-82.32,30.845c0.908,26.147-7.923,38.029-8.362,38.601l-2.516,3.273
	l0.739-4.062c2.772-15.238,2.412-25.625,1.471-32.01c-7.424,5.275-14.688,11.271-21.512,18.095c-0.294,0.294-0.581,0.593-0.872,0.89
	c1.895,28.648-7.721,41.586-8.18,42.183l-2.516,3.273l0.738-4.061c2.779-15.28,2.41-25.681,1.463-32.06
	c-28.021,33.288-39.392,73.094-43.428,91.705L0,204.311l25.864-8.62l26.084-26.084c19.028-4.128,60.222-15.923,93.946-45.347
	c-2.64-0.377-5.936-0.653-9.945-0.653c-6.561,0-13.892,0.729-21.788,2.165l-4.061,0.739l3.271-2.516
	c0.447-0.344,11.23-8.423,35.003-8.423c2.12,0,4.3,0.088,6.507,0.22c16.938-17.249,28.725-37.179,36.841-55.381
	c-2.926-0.552-6.927-1.021-12.152-1.021C173.009,59.391,165.678,60.119,157.781,61.555z M56.562,161.755l-11.214,0.593
	l78.217-75.564L56.562,161.755z"/>
<g>
</g>
<g>
</g>
<g>
</g>
<g>
</g>
<g>
</g>
<g>
</g>
<g>
</g>
<g>
</g>
<g>
</g>
<g>
</g>
<g>
</g>
<g>
</g>
<g>
</g>
<g>
</g>
<g>
</g>
</svg>
