<?xml version="1.0" encoding="UTF-8" standalone="no"?>
<svg
   xmlns:dc="http://purl.org/dc/elements/1.1/"
   xmlns:cc="http://creativecommons.org/ns#"
   xmlns:rdf="http://www.w3.org/1999/02/22-rdf-syntax-ns#"
   xmlns:svg="http://www.w3.org/2000/svg"
   xmlns="http://www.w3.org/2000/svg"
   xmlns:sodipodi="http://sodipodi.sourceforge.net/DTD/sodipodi-0.dtd"
   xmlns:inkscape="http://www.inkscape.org/namespaces/inkscape"
   inkscape:version="1.0 (4035a4f, 2020-05-01)"
   sodipodi:docname="feather.svg"
   xml:space="preserve"
   style="enable-background:new 0 0 208.623 208.623;"
   viewBox="0 0 208.623 208.623"
   y="0px"
   x="0px"
   id="Capa_1"
   version="1.1"><metadata
   id="metadata870"><rdf:RDF><cc:Work
       rdf:about=""><dc:format>image/svg+xml</dc:format><dc:type
         rdf:resource="http://purl.org/dc/dcmitype/StillImage" /></cc:Work></rdf:RDF></metadata><defs
   id="defs868" /><sodipodi:namedview
   inkscape:current-layer="Capa_1"
   inkscape:window-maximized="0"
   inkscape:window-y="0"
   inkscape:window-x="0"
   inkscape:cy="104.3115"
   inkscape:cx="104.3115"
   inkscape:zoom="2.9814546"
   showgrid="false"
   id="namedview866"
   inkscape:window-height="872"
   inkscape:window-width="1440"
   inkscape:pageshadow="2"
   inkscape:pageopacity="0"
   guidetolerance="10"
   gridtolerance="10"
   objecttolerance="10"
   borderopacity="1"
   bordercolor="#666666"
   pagecolor="#ffffff" />
<path
   style="fill:#27ae60;fill-opacity:1"
   id="path833"
   d="M157.781,61.555l-4.061,0.738l3.272-2.515c0.447-0.344,11.23-8.421,35.003-8.421c1.151,0,2.327,0.034,3.505,0.073  c10.441-26.368,13.122-47.118,13.122-47.118s-41.926,5.413-82.32,30.845c0.908,26.147-7.923,38.029-8.362,38.601l-2.516,3.273  l0.739-4.062c2.772-15.238,2.412-25.625,1.471-32.01c-7.424,5.275-14.688,11.271-21.512,18.095c-0.294,0.294-0.581,0.593-0.872,0.89  c1.895,28.648-7.721,41.586-8.18,42.183l-2.516,3.273l0.738-4.061c2.779-15.28,2.41-25.681,1.463-32.06  c-28.021,33.288-39.392,73.094-43.428,91.705L0,204.311l25.864-8.62l26.084-26.084c19.028-4.128,60.222-15.923,93.946-45.347  c-2.64-0.377-5.936-0.653-9.945-0.653c-6.561,0-13.892,0.729-21.788,2.165l-4.061,0.739l3.271-2.516  c0.447-0.344,11.23-8.423,35.003-8.423c2.12,0,4.3,0.088,6.507,0.22c16.938-17.249,28.725-37.179,36.841-55.381  c-2.926-0.552-6.927-1.021-12.152-1.021C173.009,59.391,165.678,60.119,157.781,61.555z M56.562,161.755l-11.214,0.593  l78.217-75.564L56.562,161.755z" />
<g
   id="g835">
</g>
<g
   id="g837">
</g>
<g
   id="g839">
</g>
<g
   id="g841">
</g>
<g
   id="g843">
</g>
<g
   id="g845">
</g>
<g
   id="g847">
</g>
<g
   id="g849">
</g>
<g
   id="g851">
</g>
<g
   id="g853">
</g>
<g
   id="g855">
</g>
<g
   id="g857">
</g>
<g
   id="g859">
</g>
<g
   id="g861">
</g>
<g
   id="g863">
</g>
</svg>
