<svg xmlns="http://www.w3.org/2000/svg" width="526" height="526" viewBox="0 0 139.171 139.171"><g style="fill:#000"><path style="opacity:1;fill:#000;fill-opacity:1;stroke-width:.114485" d="M191.932 73.159c-17.095-1.894-34.22 3.862-47.306 14.909a66.185 66.185 0 0 0-4.529 4.206c-1.17 1.194-1.433 2.784-1.85 4.373-.081-.722-.15-1.445-.216-2.169-5.165 5.916-9.49 12.587-11.865 20.126a40.236 40.236 0 0 0-1.485 6.451 39.938 39.938 0 0 0-.309 3.055c-.063.994-.665 1.678-1.176 2.528a77.618 77.618 0 0 0-5.675 11.517 72.61 72.61 0 0 0-3.964 13.906c1.911-4.711 3.99-9.357 6.346-13.864a110.357 110.357 0 0 1 3.678-6.486c.657-1.076 1.351-2.126 2.037-3.183.32-.493.652-1.237 1.105-1.617.337-.281-.057-.264.524-.234.381.02.817.206 1.207.259 4.783.641 9.964.159 14.699-.642 3.4-.574 6.611-1.686 9.82-2.539 2.175-.577 4.348-1.157 6.522-1.736-3.268-.207-6.584-.267-9.831-.694 2.193-.2 4.39-.416 6.582-.648 1.09-.116 2.182-.24 3.269-.375 1.47-.18 2.395-.549 3.668-1.286 5.241-3.035 9.75-7.39 13.65-11.98a68.476 68.476 0 0 0 9.72-15.033c2.826-5.98 4.571-12.287 5.38-18.843zm-31.483 44.63c-.016.007-.029.013 0 0zm24.332-26.468a67.1 67.1 0 0 1-11.265 16.223c-2.303 2.453-4.78 4.75-7.47 6.771-1.325.996-2.708 1.943-4.16 2.74-.768.422-1.296.701-2.15.811-4.994.648-10.248.948-15.373 1.355-2.503.199-5.006.399-7.51.601 2.25.987 4.481 2.083 6.826 2.833a84.319 84.319 0 0 1-14.155.34 103.179 103.179 0 0 1 25.953-24.192c2.78-1.81 5.636-3.498 8.61-4.969-5.984 1.45-11.714 4.409-16.845 7.758a76.847 76.847 0 0 0-13.598 11.302 77.729 77.729 0 0 0-6.664 8.015c.58-8.917 4.783-17.236 10.331-24.096.187 1.57.447 3.127.696 4.688.224-.932.447-1.864.677-2.793.267-1.088.542-2.173.848-3.25.218-.766.365-1.59.898-2.194 2.568-2.91 5.746-5.439 8.886-7.697 7.277-5.233 15.613-8.92 24.44-10.547a52.255 52.255 0 0 1 16.314-.422c-.864 5.807-2.699 11.457-5.29 16.723-2.717 5.514 2.592-5.27 0 0z" transform="translate(-52.77 -55.88)"/><g style="fill:#000;fill-opacity:1"><path style="fill:#000;fill-opacity:1" d="M235.85 223.86c-3.016-3.445-7.91 1.555-5 5a30.468 30.468 0 0 1 2.977 23.848 210.604 210.604 0 0 1-9.747 29.707c-3.675 10.129-7.132 20.34-10.68 30.516-1.785 5.121-3.824 10.305-5.5 15.559v.004a47.765 47.765 0 0 1 .543-8.676 204.336 204.336 0 0 1 9.34-28.184 78.634 78.634 0 0 0 3.418-28.797 42.058 42.058 0 0 1 2.035-25.605c2.036-3.246-2.953-6.047-5.085-2.972v-.004a41.846 41.846 0 0 0-5.13 26.176 87.733 87.733 0 0 1-3.386 30.074 114.893 114.893 0 0 0-7.695 29.566 86.077 86.077 0 0 0 1.175 15.39c.375 2.641.836 5.27 1.399 7.876l.164.628h-.004a20.202 20.202 0 0 0 7.973 19.652 2.71 2.71 0 0 0 3.68-3.68 22.728 22.728 0 0 1 .124-20.409c3.2-9.527 6.98-18.898 10.387-28.363 3.653-10.145 7.332-20.277 10.852-30.469h.004a118.26 118.26 0 0 0 7.926-30.305 35.619 35.619 0 0 0-9.77-26.531z" transform="matrix(.35278 0 0 .35278 -71.228 -6.148)"/><path style="fill:#000;fill-opacity:1" d="M491.46 257.77a67.56 67.56 0 0 0-29.922-20.344 241.578 241.578 0 0 0-39.039-12.949l-.602-.734a82.482 82.482 0 0 0-32.422-18.051 195.114 195.114 0 0 0-37.438-7.598 297.886 297.886 0 0 0-43.805-1.98 108.092 108.092 0 0 0-39.457 5.808c-10.44 4.402-22.44 16.129-19.188 28.625a1.3 1.3 0 0 0 2.352.309 37.578 37.578 0 0 1 7.894-12.301 40.01 40.01 0 0 1 12.535-7.817 100.01 100.01 0 0 1 35.863-4.183c13.297.058 26.586.882 39.79 2.464a234.624 234.624 0 0 1 34.741 6.352 98.03 98.03 0 0 1 14.73 5.29c-4.171-.286-8.351-.407-12.535-.29v-.004a94.007 94.007 0 0 0-62.14 24.72 334.454 334.454 0 0 0-39.579 57.007 183.292 183.292 0 0 1-24.789 28.59 166.481 166.481 0 0 1-30.543 24.38 3.108 3.108 0 0 0-1.683 2.687 2.816 2.816 0 0 0 .883 5.46c8.906-.199 17.734.137 26.656-.398 8.859-.531 17.695-1.512 26.504-2.59a378.27 378.27 0 0 0 51.5-9.93c33.426-8.917 64.758-23.175 97.125-35.104l.004-.004a386.059 386.059 0 0 1 54.453-16.477 4.694 4.694 0 0 0 3.242-5.715 4.77 4.77 0 0 0-5.715-3.242 427.68 427.68 0 0 0-96.332 30.32c-15.91 6.238-31.902 12.32-48.266 17.293-16.676 5.066-33.621 9.117-50.711 12.512-9.45 1.879-18.934 3.293-28.488 4.5-4.797.605-9.602 1.14-14.414 1.597l-2.957.325a191.433 191.433 0 0 0 19.25-12.488 145.575 145.575 0 0 0 23.812-22.707 193.95 193.95 0 0 0 19.062-27.141c5.582-9.57 10.035-19.711 15.949-29.102v-.004a61.685 61.685 0 0 1 22.602-22.191 85.705 85.705 0 0 1 29.48-9.329 157.293 157.293 0 0 1 69.68 9.957c6.707 2.207 13.328 4.676 19.957 7.098v.004a89.21 89.21 0 0 1 16.508 7.543c5.05 2.8 9.387 6.73 12.676 11.477a22.395 22.395 0 0 1 3.273 16.91c-.472 2.32 3.032 4.207 4.106 1.73v.005a31.982 31.982 0 0 0-4.606-30.29z" transform="matrix(.35278 0 0 .35278 -71.228 -6.148)"/><path style="fill:#000;fill-opacity:1" d="M475.27 271.33a29.572 29.572 0 0 0-9.879-8.902 95.547 95.547 0 0 0-11.609-6.313 158.02 158.02 0 0 0-25.62-9.148 248.237 248.237 0 0 0-26.372-5.348 142.472 142.472 0 0 0-28.168-2.332 54.307 54.307 0 0 0-25.64 7.3 60.25 60.25 0 0 0-16.81 15.72c-9.668 12.727-15.695 26.996-24.613 40.234v.004a169.421 169.421 0 0 1-39.87 42.98c-.86.637-.075 1.992.831 1.418a166.09 166.09 0 0 0 38.727-30.56 314.774 314.774 0 0 0 25.66-39.487 57.013 57.013 0 0 1 33.31-27.805 76.293 76.293 0 0 1 26.968-.25 238.266 238.266 0 0 1 25.996 4.48 182.242 182.242 0 0 1 28.336 8.75 110.492 110.492 0 0 1 12.672 6.196 72.719 72.719 0 0 0 13.105 6.953 2.632 2.632 0 0 0 2.809-.934c.656-.86.722-2.027.168-2.957z" transform="matrix(.35278 0 0 .35278 -71.228 -6.148)"/></g></g></svg>